<svg xmlns="http://www.w3.org/2000/svg" xmlns:xlink="http://www.w3.org/1999/xlink" width="500" zoomAndPan="magnify" viewBox="0 0 375 374.999991" height="500" preserveAspectRatio="xMidYMid meet" version="1.2"><defs><clipPath id="aa8653e919"><path d="M 62 109 L 371.234375 109 L 371.234375 371.234375 L 62 371.234375 Z M 62 109 "/></clipPath><clipPath id="1eb203eb95"><path d="M 3.734375 3.734375 L 313 3.734375 L 313 266 L 3.734375 266 Z M 3.734375 3.734375 "/></clipPath></defs><g id="eb1aaa815c"><rect x="0" width="375" y="0" height="374.999991" style="fill:#ffffff;fill-opacity:1;stroke:none;"/><rect x="0" width="375" y="0" height="374.999991" style="fill:#ffffff;fill-opacity:1;stroke:none;"/><g clip-rule="nonzero" clip-path="url(#aa8653e919)"><path style=" stroke:none;fill-rule:nonzero;fill:#ffa800;fill-opacity:1;" d="M 353.828125 109.429688 C 354.847656 111.507812 355.820312 113.773438 356.757812 115.988281 C 362.523438 129.609375 366.574219 143.722656 368.894531 158.207031 C 370.433594 167.824219 371.203125 177.601562 371.203125 187.492188 C 371.203125 212.28125 366.347656 236.347656 356.757812 259.011719 C 347.503906 280.894531 334.257812 300.546875 317.394531 317.410156 C 300.53125 334.273438 280.886719 347.527344 259.003906 356.78125 C 236.339844 366.367188 212.273438 371.242188 187.484375 371.242188 C 162.695312 371.242188 138.632812 366.414062 115.964844 356.828125 C 96.296875 348.507812 78.4375 337.078125 62.773438 322.53125 L 187.476562 322.53125 C 261.867188 322.53125 322.386719 261.890625 322.386719 187.507812 C 322.386719 177.449219 321.277344 167.605469 319.183594 158.101562 L 187.492188 158.101562 L 187.492188 158.199219 C 171.105469 158.207031 158.035156 171.480469 158.035156 187.679688 C 158.035156 203.878906 171.234375 217.164062 187.476562 217.164062 L 260.019531 217.164062 C 256.132812 226.660156 250.332031 235.433594 242.804688 242.957031 C 228.027344 257.726562 208.375 265.765625 187.476562 265.765625 C 166.578125 265.765625 146.925781 257.644531 132.15625 242.898438 C 117.371094 228.132812 109.226562 208.488281 109.226562 187.582031 C 109.226562 166.675781 117.378906 147.03125 132.171875 132.269531 C 146.949219 117.519531 166.59375 109.421875 187.5 109.421875 Z M 353.828125 109.429688 "/></g><g clip-rule="nonzero" clip-path="url(#1eb203eb95)"><path style=" stroke:none;fill-rule:nonzero;fill:#000000;fill-opacity:1;" d="M 3.773438 187.5 C 3.773438 162.710938 8.628906 138.625 18.21875 115.964844 C 27.472656 94.082031 40.71875 74.433594 57.582031 57.566406 C 74.445312 40.703125 94.089844 27.453125 115.972656 18.195312 C 138.636719 8.617188 162.703125 3.734375 187.492188 3.734375 C 212.28125 3.734375 236.347656 8.5625 259.011719 18.152344 C 278.679688 26.46875 296.542969 37.902344 312.203125 52.445312 L 187.492188 52.445312 C 113.101562 52.445312 52.582031 113.070312 52.582031 187.460938 C 52.582031 216.625 61.882812 243.59375 77.679688 265.851562 L 21.25 265.851562 C 20.199219 263.476562 19.1875 261.332031 18.226562 259.050781 C 8.628906 236.375 3.773438 212.296875 3.773438 187.5 Z M 3.773438 187.5 "/></g></g></svg>