<?xml version="1.0" encoding="UTF-8" standalone="no"?><!-- Generator: Gravit.io --><svg xmlns="http://www.w3.org/2000/svg" xmlns:xlink="http://www.w3.org/1999/xlink" style="isolation:isolate" viewBox="253.73 475 512 512" width="512pt" height="512pt"><path d=" M 276.017 626.43 C 261.699 658.366 253.73 693.76 253.73 731 C 253.73 832.953 313.458 921.066 399.801 962.227 Q 455.515 873 434.033 835.599 C 406.698 788.008 296.432 695.252 276.017 626.43 Z  M 314.323 565.726 C 361.276 510.237 431.42 475 509.73 475 C 651.02 475 765.73 547.396 765.73 688.686 C 765.73 829.976 651.02 987 509.73 987 C 492.803 987 476.258 985.354 460.246 982.213 Q 611.637 865.576 669.772 713.804 C 707.282 615.88 421.365 544.456 314.323 565.726 Z " fill-rule="evenodd" fill="rgb(119,0,255)"/></svg>