<?xml version="1.0" encoding="UTF-8" standalone="no"?><!-- Generator: Gravit.io --><svg xmlns="http://www.w3.org/2000/svg" xmlns:xlink="http://www.w3.org/1999/xlink" style="isolation:isolate" viewBox="0 0 512 136" width="512pt" height="136pt"><defs><clipPath id="_clipPath_cl6lLQ4Js5txk2QzSCizihHidKvgbzzT"><rect width="512" height="136"/></clipPath></defs><g clip-path="url(#_clipPath_cl6lLQ4Js5txk2QzSCizihHidKvgbzzT)"><rect width="512" height="136" style="fill:rgb(0,0,0)" fill-opacity="0"/><path d=" M 57.168 45.899 L 124.18 45.899 C 124.193 45.899 124.202 45.899 124.215 45.899 C 125.608 45.899 126.988 46.177 128.271 46.715 C 129.537 47.253 130.683 48.033 131.653 49.007 C 132.627 49.977 133.407 51.124 133.945 52.389 C 134.483 53.672 134.761 55.052 134.761 56.445 C 134.761 56.458 134.761 56.467 134.761 56.48 L 134.761 79.405 C 134.761 79.419 134.761 79.427 134.761 79.441 C 134.761 80.834 134.483 82.214 133.945 83.497 C 133.407 84.762 132.627 85.908 131.653 86.878 C 130.683 87.852 129.537 88.633 128.271 89.171 C 126.988 89.708 125.608 89.986 124.215 89.986 C 124.202 89.986 124.193 89.986 124.18 89.986 L 57.168 89.986 C 57.155 89.986 57.146 89.986 57.133 89.986 C 55.739 89.986 54.36 89.708 53.077 89.171 C 51.811 88.633 50.665 87.852 49.695 86.878 C 48.721 85.908 47.94 84.762 47.403 83.497 C 46.865 82.214 46.587 80.834 46.587 79.441 C 46.587 79.427 46.587 79.419 46.587 79.405 L 46.587 56.48 C 46.587 56.467 46.587 56.458 46.587 56.445 C 46.587 55.052 46.865 53.672 47.403 52.389 C 47.94 51.124 48.721 49.977 49.695 49.007 C 50.665 48.033 51.811 47.253 53.077 46.715 C 54.36 46.177 55.739 45.899 57.133 45.899 C 57.146 45.899 57.155 45.899 57.168 45.899 L 57.168 45.899 L 57.168 45.899 L 57.168 45.899 L 57.168 45.899 L 57.168 45.899 L 57.168 45.899 Z  M 244.978 112.144 C 244.978 117.99 242.655 123.598 238.524 127.733 C 234.389 131.864 228.781 134.188 222.935 134.188 C 217.093 134.188 211.481 131.864 207.35 127.733 C 203.215 123.598 200.891 117.99 200.891 112.144 L 200.891 83.62 C 200.891 77.774 203.215 72.166 207.35 68.031 C 211.481 63.9 217.093 61.577 222.935 61.577 C 228.781 61.577 234.389 63.9 238.524 68.031 C 242.655 72.166 244.978 77.774 244.978 83.62 L 244.978 112.144 L 244.978 112.144 L 244.978 112.144 L 244.978 112.144 L 244.978 112.144 L 244.978 112.144 Z  M 244.978 36.315 C 244.978 42.161 244.859 47.773 240.728 51.904 C 236.593 56.035 228.781 49.541 222.935 49.541 C 217.093 49.541 209.277 56.035 205.146 51.904 C 201.01 47.773 200.891 42.161 200.891 36.315 L 200.891 26.073 C 200.891 20.232 203.215 14.619 207.35 10.489 C 211.481 6.353 217.093 4.03 222.935 4.03 C 228.781 4.03 234.389 6.353 238.524 10.489 C 242.655 14.619 244.978 20.232 244.978 26.073 L 244.978 36.315 L 244.978 36.315 L 244.978 36.315 L 244.978 36.315 L 244.978 36.315 Z  M 509.5 112.144 C 509.5 117.99 507.177 123.598 503.046 127.733 C 498.91 131.864 493.302 134.188 487.457 134.188 C 481.615 134.188 476.003 131.864 471.872 127.733 C 467.736 123.598 465.413 117.99 465.413 112.144 L 465.413 83.62 C 465.413 77.774 467.736 72.166 471.872 68.031 C 476.003 63.9 481.615 61.577 487.457 61.577 C 493.302 61.577 498.91 63.9 503.046 68.031 C 507.177 72.166 509.5 77.774 509.5 83.62 L 509.5 112.144 L 509.5 112.144 L 509.5 112.144 L 509.5 112.144 Z  M 509.5 31.906 C 509.5 37.752 507.177 43.364 503.046 47.495 C 498.91 51.626 493.302 53.949 487.457 53.949 C 481.615 53.949 476.003 51.626 471.872 47.495 C 467.736 43.364 465.413 37.752 465.413 31.906 L 465.413 26.073 C 465.413 20.232 467.736 14.619 471.872 10.489 C 476.003 6.353 481.615 4.03 487.457 4.03 C 493.302 4.03 498.91 6.353 503.046 10.489 C 507.177 14.619 509.5 20.232 509.5 26.073 L 509.5 31.906 L 509.5 31.906 L 509.5 31.906 Z  M 333.152 88.029 C 333.152 82.183 335.476 76.575 339.611 72.44 C 343.742 68.309 349.354 65.985 355.196 65.985 C 361.042 65.985 366.649 68.309 370.785 72.44 C 374.916 76.575 377.239 82.183 377.239 88.029 L 377.239 112.144 C 377.239 117.99 374.916 123.598 370.785 127.733 C 366.649 131.864 361.042 134.188 355.196 134.188 C 349.354 134.188 343.742 131.864 339.611 127.733 C 335.476 123.598 333.152 117.99 333.152 112.144 L 333.152 88.029 L 333.152 88.029 Z  M 57.168 1.812 L 124.18 1.812 C 154.352 1.812 178.848 26.308 178.848 56.48 L 178.848 79.405 C 178.848 109.577 154.352 134.073 124.18 134.073 L 57.168 134.073 C 26.996 134.073 2.5 109.577 2.5 79.405 L 2.5 56.48 C 2.5 26.308 26.996 1.812 57.168 1.812 L 57.168 1.812 L 57.168 1.812 L 57.168 1.812 L 57.168 1.812 L 57.168 1.812 L 57.168 1.812 Z  M 311.109 112.144 C 311.109 117.99 308.785 123.598 304.654 127.733 C 300.519 131.864 294.911 134.188 289.065 134.188 C 283.224 134.188 277.611 131.864 273.48 127.733 C 269.345 123.598 267.022 117.99 267.022 112.144 L 267.022 56.943 C 267.017 49.572 268.494 42.271 271.364 35.481 C 274.137 28.939 278.145 22.992 283.166 17.97 C 288.188 12.949 294.135 8.941 300.678 6.168 C 307.467 3.298 314.768 1.821 322.139 1.825 L 388.252 1.825 C 395.628 1.821 402.924 3.298 409.718 6.168 C 416.256 8.941 422.203 12.949 427.225 17.97 C 432.251 22.992 436.258 28.939 439.027 35.481 C 441.897 42.271 443.374 49.572 443.37 56.943 L 443.37 112.144 C 443.37 117.99 441.046 123.598 436.915 127.733 C 432.78 131.864 427.172 134.188 421.326 134.188 C 415.485 134.188 409.872 131.864 405.741 127.733 C 401.606 123.598 399.283 117.99 399.283 112.144 L 399.283 56.934 C 399.283 56.93 399.283 56.925 399.283 56.917 C 399.283 55.453 398.992 54.007 398.427 52.658 C 397.867 51.344 397.061 50.154 396.051 49.144 C 395.041 48.134 393.851 47.328 392.537 46.772 C 391.188 46.203 389.742 45.912 388.278 45.912 C 388.274 45.912 388.265 45.912 388.261 45.912 L 322.13 45.912 C 322.126 45.912 322.122 45.912 322.113 45.912 C 320.653 45.912 319.203 46.203 317.854 46.772 C 316.54 47.328 315.35 48.134 314.34 49.144 C 313.331 50.154 312.524 51.344 311.968 52.658 C 311.4 54.007 311.109 55.453 311.109 56.917 C 311.109 56.925 311.109 56.93 311.109 56.934 L 311.109 112.144 Z " fill-rule="evenodd" fill="rgb(0,0,0)"/></g></svg>