<?xml version="1.0" encoding="UTF-8" standalone="no"?><!-- Generator: Gravit.io --><svg xmlns="http://www.w3.org/2000/svg" xmlns:xlink="http://www.w3.org/1999/xlink" style="isolation:isolate" viewBox="0 0 524 94" width="524pt" height="94pt"><defs><clipPath id="_clipPath_d7WFiqPqsLh4MrVfr14p82yAIZ51bgob"><rect width="524" height="94"/></clipPath></defs><g clip-path="url(#_clipPath_d7WFiqPqsLh4MrVfr14p82yAIZ51bgob)"><rect width="524" height="94" style="fill:rgb(0,0,0)" fill-opacity="0"/><path d=" M 13.757 90.915 L 2.556 90.915 L 2.556 29.082 L 42.167 29.082 L 42.167 38.472 L 13.757 38.472 L 13.757 55.258 L 39.45 55.258 L 39.45 64.648 L 13.757 64.648 L 13.757 90.915 Z  M 49.43 29.082 L 60.359 29.082 L 60.359 90.915 L 49.43 90.915 L 49.43 29.082 Z  M 89.39 91.82 L 89.39 91.82 L 89.39 91.82 Q 82.597 91.82 77.615 88.831 L 77.615 88.831 L 77.615 88.831 Q 72.633 85.843 69.901 80.468 L 69.901 80.468 L 69.901 80.468 Q 67.169 75.094 67.169 67.909 L 67.169 67.909 L 67.169 67.909 Q 67.169 60.723 69.901 55.319 L 69.901 55.319 L 69.901 55.319 Q 72.633 49.915 77.615 46.926 L 77.615 46.926 L 77.615 46.926 Q 82.597 43.937 89.39 43.937 L 89.39 43.937 L 89.39 43.937 Q 96.183 43.937 101.164 46.926 L 101.164 46.926 L 101.164 46.926 Q 106.146 49.915 108.878 55.319 L 108.878 55.319 L 108.878 55.319 Q 111.611 60.723 111.611 67.909 L 111.611 67.909 L 111.611 67.909 Q 111.611 75.094 108.878 80.468 L 108.878 80.468 L 108.878 80.468 Q 106.146 85.843 101.164 88.831 L 101.164 88.831 L 101.164 88.831 Q 96.183 91.82 89.39 91.82 Z  M 89.45 83.065 L 89.45 83.065 L 89.45 83.065 Q 93.134 83.065 95.609 81.027 L 95.609 81.027 L 95.609 81.027 Q 98.085 78.989 99.308 75.547 L 99.308 75.547 L 99.308 75.547 Q 100.53 72.105 100.53 67.879 L 100.53 67.879 L 100.53 67.879 Q 100.53 63.621 99.308 60.165 L 99.308 60.165 L 99.308 60.165 Q 98.085 56.708 95.609 54.655 L 95.609 54.655 L 95.609 54.655 Q 93.134 52.602 89.45 52.602 L 89.45 52.602 L 89.45 52.602 Q 85.676 52.602 83.185 54.655 L 83.185 54.655 L 83.185 54.655 Q 80.695 56.708 79.472 60.165 L 79.472 60.165 L 79.472 60.165 Q 78.249 63.621 78.249 67.879 L 78.249 67.879 L 78.249 67.879 Q 78.249 72.105 79.472 75.547 L 79.472 75.547 L 79.472 75.547 Q 80.695 78.989 83.185 81.027 L 83.185 81.027 L 83.185 81.027 Q 85.676 83.065 89.45 83.065 Z  M 129.35 90.915 L 118.42 90.915 L 118.42 44.54 L 129.018 44.54 L 129.018 52.269 L 129.501 52.269 L 129.501 52.269 Q 130.769 48.254 133.863 46.065 L 133.863 46.065 L 133.863 46.065 Q 136.958 43.876 140.943 43.876 L 140.943 43.876 L 140.943 43.876 Q 141.849 43.876 142.981 43.952 L 142.981 43.952 L 142.981 43.952 Q 144.113 44.027 144.868 44.178 L 144.868 44.178 L 144.868 54.232 L 144.868 54.232 Q 144.174 53.99 142.679 53.794 L 142.679 53.794 L 142.679 53.794 Q 141.185 53.598 139.796 53.598 L 139.796 53.598 L 139.796 53.598 Q 136.807 53.598 134.437 54.881 L 134.437 54.881 L 134.437 54.881 Q 132.067 56.164 130.708 58.428 L 130.708 58.428 L 130.708 58.428 Q 129.35 60.693 129.35 63.652 L 129.35 63.652 L 129.35 90.915 Z  M 162.184 91.851 L 162.184 91.851 L 162.184 91.851 Q 157.776 91.851 154.259 90.266 L 154.259 90.266 L 154.259 90.266 Q 150.742 88.681 148.704 85.571 L 148.704 85.571 L 148.704 85.571 Q 146.666 82.461 146.666 77.902 L 146.666 77.902 L 146.666 77.902 Q 146.666 73.977 148.115 71.411 L 148.115 71.411 L 148.115 71.411 Q 149.564 68.845 152.07 67.305 L 152.07 67.305 L 152.07 67.305 Q 154.576 65.765 157.731 64.965 L 157.731 64.965 L 157.731 64.965 Q 160.886 64.165 164.268 63.803 L 164.268 63.803 L 164.268 63.803 Q 168.343 63.38 170.88 63.033 L 170.88 63.033 L 170.88 63.033 Q 173.416 62.686 174.578 61.946 L 174.578 61.946 L 174.578 61.946 Q 175.74 61.206 175.74 59.636 L 175.74 59.636 L 175.74 59.455 L 175.74 59.455 Q 175.74 56.043 173.718 54.172 L 173.718 54.172 L 173.718 54.172 Q 171.695 52.3 167.891 52.3 L 167.891 52.3 L 167.891 52.3 Q 163.875 52.3 161.535 54.051 L 161.535 54.051 L 161.535 54.051 Q 159.195 55.802 158.38 58.187 L 158.38 58.187 L 148.175 56.738 L 148.175 56.738 Q 149.383 52.511 152.161 49.658 L 152.161 49.658 L 152.161 49.658 Q 154.938 46.805 158.954 45.371 L 158.954 45.371 L 158.954 45.371 Q 162.969 43.937 167.83 43.937 L 167.83 43.937 L 167.83 43.937 Q 171.181 43.937 174.503 44.722 L 174.503 44.722 L 174.503 44.722 Q 177.824 45.507 180.571 47.303 L 180.571 47.303 L 180.571 47.303 Q 183.318 49.099 184.994 52.179 L 184.994 52.179 L 184.994 52.179 Q 186.67 55.258 186.67 59.878 L 186.67 59.878 L 186.67 90.915 L 176.163 90.915 L 176.163 84.544 L 175.801 84.544 L 175.801 84.544 Q 174.804 86.477 173.008 88.152 L 173.008 88.152 L 173.008 88.152 Q 171.212 89.828 168.51 90.839 L 168.51 90.839 L 168.51 90.839 Q 165.807 91.851 162.184 91.851 Z  M 165.022 83.82 L 165.022 83.82 L 165.022 83.82 Q 168.313 83.82 170.729 82.506 L 170.729 82.506 L 170.729 82.506 Q 173.144 81.193 174.457 79.019 L 174.457 79.019 L 174.457 79.019 Q 175.771 76.845 175.771 74.279 L 175.771 74.279 L 175.771 68.814 L 175.771 68.814 Q 175.257 69.237 174.035 69.599 L 174.035 69.599 L 174.035 69.599 Q 172.812 69.962 171.302 70.233 L 171.302 70.233 L 171.302 70.233 Q 169.793 70.505 168.313 70.716 L 168.313 70.716 L 168.313 70.716 Q 166.834 70.928 165.747 71.079 L 165.747 71.079 L 165.747 71.079 Q 163.301 71.411 161.369 72.166 L 161.369 72.166 L 161.369 72.166 Q 159.437 72.92 158.32 74.264 L 158.32 74.264 L 158.32 74.264 Q 157.203 75.608 157.203 77.721 L 157.203 77.721 L 157.203 77.721 Q 157.203 80.74 159.407 82.28 L 159.407 82.28 L 159.407 82.28 Q 161.611 83.82 165.022 83.82 Z  M 206.19 90.915 L 195.261 90.915 L 195.261 44.54 L 205.707 44.54 L 205.707 52.42 L 206.25 52.42 L 206.25 52.42 Q 207.7 48.435 211.051 46.186 L 211.051 46.186 L 211.051 46.186 Q 214.402 43.937 219.052 43.937 L 219.052 43.937 L 219.052 43.937 Q 223.761 43.937 227.007 46.216 L 227.007 46.216 L 227.007 46.216 Q 230.253 48.496 231.581 52.42 L 231.581 52.42 L 232.064 52.42 L 232.064 52.42 Q 233.604 48.556 237.272 46.246 L 237.272 46.246 L 237.272 46.246 Q 240.941 43.937 245.983 43.937 L 245.983 43.937 L 245.983 43.937 Q 252.383 43.937 256.429 47.982 L 256.429 47.982 L 256.429 47.982 Q 260.475 52.028 260.475 59.787 L 260.475 59.787 L 260.475 90.915 L 249.515 90.915 L 249.515 61.478 L 249.515 61.478 Q 249.515 57.16 247.22 55.153 L 247.22 55.153 L 247.22 55.153 Q 244.926 53.145 241.605 53.145 L 241.605 53.145 L 241.605 53.145 Q 237.65 53.145 235.431 55.606 L 235.431 55.606 L 235.431 55.606 Q 233.211 58.066 233.211 61.991 L 233.211 61.991 L 233.211 90.915 L 222.493 90.915 L 222.493 61.025 L 222.493 61.025 Q 222.493 57.432 220.335 55.289 L 220.335 55.289 L 220.335 55.289 Q 218.176 53.145 214.704 53.145 L 214.704 53.145 L 214.704 53.145 Q 212.349 53.145 210.417 54.338 L 210.417 54.338 L 210.417 54.338 Q 208.485 55.53 207.337 57.689 L 207.337 57.689 L 207.337 57.689 Q 206.19 59.848 206.19 62.716 L 206.19 62.716 L 206.19 90.915 Z  M 289.686 91.82 L 289.686 91.82 L 289.686 91.82 Q 282.712 91.82 277.655 88.907 L 277.655 88.907 L 277.655 88.907 Q 272.598 85.993 269.881 80.635 L 269.881 80.635 L 269.881 80.635 Q 267.163 75.275 267.163 67.999 L 267.163 67.999 L 267.163 67.999 Q 267.163 60.844 269.896 55.424 L 269.896 55.424 L 269.896 55.424 Q 272.628 50.005 277.549 46.971 L 277.549 46.971 L 277.549 46.971 Q 282.47 43.937 289.113 43.937 L 289.113 43.937 L 289.113 43.937 Q 293.4 43.937 297.219 45.31 L 297.219 45.31 L 297.219 45.31 Q 301.038 46.684 303.982 49.552 L 303.982 49.552 L 303.982 49.552 Q 306.926 52.42 308.616 56.843 L 308.616 56.843 L 308.616 56.843 Q 310.307 61.267 310.307 67.365 L 310.307 67.365 L 310.307 70.716 L 272.296 70.716 L 272.296 63.35 L 299.831 63.35 L 299.831 63.35 Q 299.8 60.21 298.472 57.749 L 298.472 57.749 L 298.472 57.749 Q 297.144 55.289 294.773 53.87 L 294.773 53.87 L 294.773 53.87 Q 292.403 52.451 289.264 52.451 L 289.264 52.451 L 289.264 52.451 Q 285.912 52.451 283.376 54.066 L 283.376 54.066 L 283.376 54.066 Q 280.84 55.681 279.436 58.293 L 279.436 58.293 L 279.436 58.293 Q 278.032 60.904 278.002 64.014 L 278.002 64.014 L 278.002 70.445 L 278.002 70.445 Q 278.002 74.491 279.481 77.374 L 279.481 77.374 L 279.481 77.374 Q 280.961 80.257 283.618 81.782 L 283.618 81.782 L 283.618 81.782 Q 286.275 83.306 289.837 83.306 L 289.837 83.306 L 289.837 83.306 Q 292.222 83.306 294.155 82.627 L 294.155 82.627 L 294.155 82.627 Q 296.087 81.948 297.506 80.619 L 297.506 80.619 L 297.506 80.619 Q 298.925 79.291 299.649 77.328 L 299.649 77.328 L 309.854 78.476 L 309.854 78.476 Q 308.888 82.521 306.186 85.526 L 306.186 85.526 L 306.186 85.526 Q 303.484 88.53 299.287 90.175 L 299.287 90.175 L 299.287 90.175 Q 295.09 91.82 289.686 91.82 Z  M 334.326 91.73 L 334.326 91.73 L 334.326 91.73 Q 328.861 91.73 324.544 88.922 L 324.544 88.922 L 324.544 88.922 Q 320.226 86.114 317.72 80.77 L 317.72 80.77 L 317.72 80.77 Q 315.215 75.426 315.215 67.788 L 315.215 67.788 L 315.215 67.788 Q 315.215 60.059 317.766 54.73 L 317.766 54.73 L 317.766 54.73 Q 320.317 49.401 324.664 46.669 L 324.664 46.669 L 324.664 46.669 Q 329.012 43.937 334.356 43.937 L 334.356 43.937 L 334.356 43.937 Q 338.432 43.937 341.059 45.31 L 341.059 45.31 L 341.059 45.31 Q 343.685 46.684 345.225 48.601 L 345.225 48.601 L 345.225 48.601 Q 346.765 50.518 347.61 52.209 L 347.61 52.209 L 348.063 52.209 L 348.063 29.082 L 359.023 29.082 L 359.023 90.915 L 348.274 90.915 L 348.274 83.608 L 347.61 83.608 L 347.61 83.608 Q 346.765 85.299 345.165 87.186 L 345.165 87.186 L 345.165 87.186 Q 343.564 89.073 340.938 90.401 L 340.938 90.401 L 340.938 90.401 Q 338.311 91.73 334.326 91.73 Z  M 337.375 82.763 L 337.375 82.763 L 337.375 82.763 Q 340.847 82.763 343.293 80.876 L 343.293 80.876 L 343.293 80.876 Q 345.738 78.989 347.006 75.608 L 347.006 75.608 L 347.006 75.608 Q 348.274 72.226 348.274 67.728 L 348.274 67.728 L 348.274 67.728 Q 348.274 63.229 347.021 59.908 L 347.021 59.908 L 347.021 59.908 Q 345.768 56.587 343.338 54.745 L 343.338 54.745 L 343.338 54.745 Q 340.908 52.903 337.375 52.903 L 337.375 52.903 L 337.375 52.903 Q 333.722 52.903 331.276 54.806 L 331.276 54.806 L 331.276 54.806 Q 328.831 56.708 327.593 60.059 L 327.593 60.059 L 327.593 60.059 Q 326.355 63.41 326.355 67.728 L 326.355 67.728 L 326.355 67.728 Q 326.355 72.075 327.608 75.472 L 327.608 75.472 L 327.608 75.472 Q 328.861 78.868 331.322 80.816 L 331.322 80.816 L 331.322 80.816 Q 333.782 82.763 337.375 82.763 Z  M 379.207 90.915 L 368.278 90.915 L 368.278 44.54 L 379.207 44.54 L 379.207 90.915 Z  M 373.772 37.959 L 373.772 37.959 L 373.772 37.959 Q 371.146 37.959 369.289 36.223 L 369.289 36.223 L 369.289 36.223 Q 367.432 34.487 367.432 32.041 L 367.432 32.041 L 367.432 32.041 Q 367.432 29.565 369.304 27.829 L 369.304 27.829 L 369.304 27.829 Q 371.176 26.093 373.772 26.093 L 373.772 26.093 L 373.772 26.093 Q 376.369 26.093 378.226 27.829 L 378.226 27.829 L 378.226 27.829 Q 380.083 29.565 380.083 32.041 L 380.083 32.041 L 380.083 32.041 Q 380.083 34.487 378.226 36.223 L 378.226 36.223 L 378.226 36.223 Q 376.369 37.959 373.772 37.959 Z  M 385.352 44.54 L 396.946 44.54 L 406.305 61.659 L 415.816 44.54 L 427.379 44.54 L 413.4 67.728 L 427.621 90.915 L 416.117 90.915 L 406.305 74.219 L 396.584 90.915 L 384.99 90.915 L 399.12 67.728 L 385.352 44.54 Z " fill="rgb(47,96,57)"/><path d=" M 433.162 90.485 C 444.815 74.956 450.593 67.298 451.886 51.521 Q 453.178 35.744 449.9 19.149 Q 448.517 21.718 448.905 32.882 C 449.292 44.046 448.015 58.638 446.029 65.997 C 432.481 51.365 431.763 44.671 432.314 33.87 C 432.866 23.069 442.214 9.503 448.514 2.149 C 457.956 11.415 464.661 23.824 465.052 34.719 C 465.443 45.614 462.394 51.826 458.686 56.869 C 454.979 61.913 452.004 65.148 450.415 70.504 C 458.4 63.102 462 61.304 467.978 57.4 C 473.957 53.496 481.093 47.349 486.771 43.1 C 492.448 38.851 505.743 30.061 507.989 28.833 C 502.543 30.154 494.952 33.882 485.187 40.653 C 475.422 47.424 471.302 52.31 467.203 54.964 C 467.865 41.913 471.574 32.301 480.944 25.636 C 490.313 18.971 506.58 17.18 521.444 20.526 C 518.745 36.874 510.71 48.722 501.159 55.425 C 491.607 62.128 478.409 60.412 474.003 60.312 C 469.598 60.212 464.314 63.759 460.171 66.593 C 456.029 69.428 449.683 74.506 446.263 78.533 C 451.471 76.057 455.67 72.768 460.117 70.635 C 464.563 68.502 473.989 67.306 481.148 70.113 C 488.306 72.919 494.753 79.01 497.562 82.061 C 488.856 88.239 480.979 92.216 470.363 90.182 Q 459.747 88.147 453.118 79.839 Q 471.036 76.363 481.824 79.825 C 471.64 75.775 462.547 76.248 457.603 77.07 C 452.659 77.893 447.382 80.237 442.542 84.547 C 437.703 88.858 435.373 89.928 433.162 90.485 Z " fill="rgb(100,183,116)"/></g></svg>