<?xml version="1.0" encoding="UTF-8" standalone="no"?><!-- Generator: Gravit.io --><svg xmlns="http://www.w3.org/2000/svg" xmlns:xlink="http://www.w3.org/1999/xlink" style="isolation:isolate" viewBox="0 0 1160 310" width="1160pt" height="310pt"><defs><clipPath id="_clipPath_qkvZ3GLT20EIRXoqaexG8ohAdHR2uyoL"><rect width="1160" height="310"/></clipPath></defs><g clip-path="url(#_clipPath_qkvZ3GLT20EIRXoqaexG8ohAdHR2uyoL)"><rect width="1160" height="310" style="fill:rgb(0,0,0)" fill-opacity="0"/><path d=" M 129 104.87 L 281 104.87 C 281.03 104.87 281.05 104.87 281.08 104.87 C 284.24 104.87 287.37 105.5 290.28 106.72 C 293.15 107.94 295.75 109.71 297.95 111.92 C 300.16 114.12 301.93 116.72 303.15 119.59 C 304.37 122.5 305 125.63 305 128.79 C 305 128.82 305 128.84 305 128.87 L 305 180.87 C 305 180.9 305 180.92 305 180.95 C 305 184.11 304.37 187.24 303.15 190.15 C 301.93 193.02 300.16 195.62 297.95 197.82 C 295.75 200.03 293.15 201.8 290.28 203.02 C 287.37 204.24 284.24 204.87 281.08 204.87 C 281.05 204.87 281.03 204.87 281 204.87 L 129 204.87 C 128.97 204.87 128.95 204.87 128.92 204.87 C 125.76 204.87 122.63 204.24 119.72 203.02 C 116.85 201.8 114.25 200.03 112.05 197.82 C 109.84 195.62 108.07 193.02 106.85 190.15 C 105.63 187.24 105 184.11 105 180.95 C 105 180.92 105 180.9 105 180.87 L 105 128.87 C 105 128.84 105 128.82 105 128.79 C 105 125.63 105.63 122.5 106.85 119.59 C 108.07 116.72 109.84 114.12 112.05 111.92 C 114.25 109.71 116.85 107.94 119.72 106.72 C 122.63 105.5 125.76 104.87 128.92 104.87 C 128.95 104.87 128.97 104.87 129 104.87 L 129 104.87 L 129 104.87 L 129 104.87 L 129 104.87 L 129 104.87 L 129 104.87 Z  M 555 255.13 C 555 268.39 549.73 281.11 540.36 290.49 C 530.98 299.86 518.26 305.13 505 305.13 C 491.75 305.13 479.02 299.86 469.65 290.49 C 460.27 281.11 455 268.39 455 255.13 L 455 190.43 C 455 177.17 460.27 164.45 469.65 155.07 C 479.02 145.7 491.75 140.43 505 140.43 C 518.26 140.43 530.98 145.7 540.36 155.07 C 549.73 164.45 555 177.17 555 190.43 L 555 255.13 L 555 255.13 L 555 255.13 L 555 255.13 L 555 255.13 L 555 255.13 Z  M 555 83.13 C 555 96.39 554.73 109.12 545.36 118.49 C 535.98 127.86 518.26 113.13 505 113.13 C 491.75 113.13 474.02 127.86 464.65 118.49 C 455.27 109.12 455 96.39 455 83.13 L 455 59.9 C 455 46.65 460.27 33.92 469.65 24.55 C 479.02 15.17 491.75 9.9 505 9.9 C 518.26 9.9 530.98 15.17 540.36 24.55 C 549.73 33.92 555 46.65 555 59.9 L 555 83.13 L 555 83.13 L 555 83.13 L 555 83.13 L 555 83.13 Z  M 1155 255.13 C 1155 268.39 1149.73 281.11 1140.36 290.49 C 1130.98 299.86 1118.26 305.13 1105 305.13 C 1091.75 305.13 1079.02 299.86 1069.65 290.49 C 1060.27 281.11 1055 268.39 1055 255.13 L 1055 190.43 C 1055 177.17 1060.27 164.45 1069.65 155.07 C 1079.02 145.7 1091.75 140.43 1105 140.43 C 1118.26 140.43 1130.98 145.7 1140.36 155.07 C 1149.73 164.45 1155 177.17 1155 190.43 L 1155 255.13 L 1155 255.13 L 1155 255.13 L 1155 255.13 Z  M 1155 73.13 C 1155 86.39 1149.73 99.12 1140.36 108.49 C 1130.98 117.86 1118.26 123.13 1105 123.13 C 1091.75 123.13 1079.02 117.86 1069.65 108.49 C 1060.27 99.12 1055 86.39 1055 73.13 L 1055 59.9 C 1055 46.65 1060.27 33.92 1069.65 24.55 C 1079.02 15.17 1091.75 9.9 1105 9.9 C 1118.26 9.9 1130.98 15.17 1140.36 24.55 C 1149.73 33.92 1155 46.65 1155 59.9 L 1155 73.13 L 1155 73.13 L 1155 73.13 Z  M 755 200.43 C 755 187.17 760.27 174.45 769.65 165.07 C 779.02 155.7 791.75 150.43 805 150.43 C 818.26 150.43 830.98 155.7 840.36 165.07 C 849.73 174.45 855 187.17 855 200.43 L 855 255.13 C 855 268.39 849.73 281.11 840.36 290.49 C 830.98 299.86 818.26 305.13 805 305.13 C 791.75 305.13 779.02 299.86 769.65 290.49 C 760.27 281.11 755 268.39 755 255.13 L 755 200.43 L 755 200.43 Z  M 129 4.87 L 281 4.87 C 349.437 4.87 405 60.433 405 128.87 L 405 180.87 C 405 249.307 349.437 304.87 281 304.87 L 129 304.87 C 60.563 304.87 5 249.307 5 180.87 L 5 128.87 C 5 60.433 60.563 4.87 129 4.87 L 129 4.87 L 129 4.87 L 129 4.87 L 129 4.87 L 129 4.87 L 129 4.87 Z  M 705 255.13 C 705 268.39 699.73 281.11 690.36 290.49 C 680.98 299.86 668.26 305.13 655 305.13 C 641.75 305.13 629.02 299.86 619.65 290.49 C 610.27 281.11 605 268.39 605 255.13 L 605 129.92 C 604.99 113.2 608.34 96.64 614.85 81.24 C 621.14 66.4 630.23 52.91 641.62 41.52 C 653.01 30.13 666.5 21.04 681.34 14.75 C 696.74 8.24 713.3 4.89 730.02 4.9 L 879.98 4.9 C 896.71 4.89 913.26 8.24 928.67 14.75 C 943.5 21.04 956.99 30.13 968.38 41.52 C 979.78 52.91 988.87 66.4 995.15 81.24 C 1001.66 96.64 1005.01 113.2 1005 129.92 L 1005 255.13 C 1005 268.39 999.73 281.11 990.36 290.49 C 980.98 299.86 968.26 305.13 955 305.13 C 941.75 305.13 929.02 299.86 919.65 290.49 C 910.27 281.11 905 268.39 905 255.13 L 905 129.9 C 905 129.89 905 129.88 905 129.86 C 905 126.54 904.34 123.26 903.06 120.2 C 901.79 117.22 899.96 114.52 897.67 112.23 C 895.38 109.94 892.68 108.11 889.7 106.85 C 886.64 105.56 883.36 104.9 880.04 104.9 C 880.03 104.9 880.01 104.9 880 104.9 L 730 104.9 C 729.99 104.9 729.98 104.9 729.96 104.9 C 726.65 104.9 723.36 105.56 720.3 106.85 C 717.32 108.11 714.62 109.94 712.33 112.23 C 710.04 114.52 708.21 117.22 706.95 120.2 C 705.66 123.26 705 126.54 705 129.86 C 705 129.88 705 129.89 705 129.9 L 705 255.13 Z " fill-rule="evenodd" fill="rgb(255,255,255)"/></g></svg>