<?xml version="1.0" encoding="UTF-8" standalone="no"?>
<!-- Created with Inkscape (http://www.inkscape.org/) -->

<svg
   version="1.1"
   id="svg1"
   width="952.06665"
   height="491.56"
   viewBox="0 0 952.06665 491.56"
   sodipodi:docname="bkash-seeklogo.eps"
   xmlns:inkscape="http://www.inkscape.org/namespaces/inkscape"
   xmlns:sodipodi="http://sodipodi.sourceforge.net/DTD/sodipodi-0.dtd"
   xmlns="http://www.w3.org/2000/svg"
   xmlns:svg="http://www.w3.org/2000/svg">
  <defs
     id="defs1" />
  <sodipodi:namedview
     id="namedview1"
     pagecolor="#ffffff"
     bordercolor="#000000"
     borderopacity="0.25"
     inkscape:showpageshadow="2"
     inkscape:pageopacity="0.0"
     inkscape:pagecheckerboard="0"
     inkscape:deskcolor="#d1d1d1">
    <inkscape:page
       x="0"
       y="0"
       inkscape:label="1"
       id="page1"
       width="952.06665"
       height="491.56"
       margin="0"
       bleed="0" />
  </sodipodi:namedview>
  <g
     id="g1"
     inkscape:groupmode="layer"
     inkscape:label="1">
    <g
       id="group-R5">
      <path
         id="path2"
         d="m 4555.26,1950.36 c -453.44,582 -898,1152.62 -1342.58,1723.24 2.18,4.37 4.37,8.75 6.55,13.13 582.15,-69.92 1164.29,-139.84 1755.36,-210.83 -139.85,-508.78 -277.71,-1010.34 -419.33,-1525.54"
         style="fill:#d51452;fill-opacity:1;fill-rule:nonzero;stroke:none"
         transform="matrix(0.13333333,0,0,-0.13333333,0,491.56)" />
      <path
         id="path3"
         d="m 4625.3,1936.99 c 140.73,511.13 279.67,1015.85 422.57,1534.91 432.71,-604.05 856.85,-1196.14 1280.98,-1788.22 -2.21,-4.53 -4.42,-9.04 -6.63,-13.55 -562.53,88.47 -1125.05,176.92 -1696.92,266.86"
         style="fill:#e20b6d;fill-opacity:1;fill-rule:nonzero;stroke:none"
         transform="matrix(0.13333333,0,0,-0.13333333,0,491.56)" />
      <path
         id="path4"
         d="m 4629.16,1862.5 c 548.84,-87.77 1086.37,-173.73 1623.91,-259.68 1.01,-5.4 2.04,-10.79 3.06,-16.19 -464.87,-233 -929.75,-466.02 -1403.13,-703.29 -74.63,326.47 -147.65,645.88 -223.84,979.16"
         style="fill:#d51452;fill-opacity:1;fill-rule:nonzero;stroke:none"
         transform="matrix(0.13333333,0,0,-0.13333333,0,491.56)" />
      <path
         id="path5"
         d="M 4021.88,6.17969 C 4196.43,621.621 4370.96,1237.06 4549.37,1866.18 c 9.61,-21.74 16.06,-31.62 18.46,-42.4 83.54,-375.74 166.22,-751.68 250.63,-1127.21 8.4,-37.398 0.39,-59.519 -29.85,-83.922 C 4547.7,418.199 4308.42,221.711 4068.54,25.9609 4057.27,16.7617 4045.12,8.62891 4033.38,-0.0117188 4029.54,2.05078 4025.71,4.12109 4021.88,6.17969"
         style="fill:#9d1738;fill-opacity:1;fill-rule:nonzero;stroke:none"
         transform="matrix(0.13333333,0,0,-0.13333333,0,491.56)" />
      <path
         id="path6"
         d="m 5893.66,2396.99 c 283.28,51.15 555.27,100.26 842.34,152.11 -108.01,-294.74 -211.98,-578.41 -321.03,-875.98 -176.04,244.45 -344.4,478.22 -521.31,723.87"
         style="fill:#d51452;fill-opacity:1;fill-rule:nonzero;stroke:none"
         transform="matrix(0.13333333,0,0,-0.13333333,0,491.56)" />
      <path
         id="path7"
         d="m 5076.69,919.969 c 419.32,213.811 838.62,427.621 1257.93,641.421 3.37,-2.84 6.75,-5.67 10.12,-8.51 -15.78,-48 -30.37,-96.44 -48.28,-143.63 -3.85,-10.19 -18.48,-18.62 -30,-23.27 -391.16,-157.94 -782.53,-315.32 -1173.92,-472.691 -3.01,-1.207 -6.53,-1.141 -9.82,-1.66 -2.01,2.793 -4.02,5.562 -6.03,8.34"
         style="fill:#e20b6d;fill-opacity:1;fill-rule:nonzero;stroke:none"
         transform="matrix(0.13333333,0,0,-0.13333333,0,491.56)" />
      <path
         id="path8"
         d="m 7135.28,2182.45 c -152.87,0 -305.74,0 -466.9,0 44.16,120.36 86.56,235.94 125.1,340.97 116.01,-108.97 231.52,-217.46 347.03,-325.95 -1.75,-5.01 -3.49,-10.01 -5.23,-15.02"
         style="fill:#e20b6d;fill-opacity:1;fill-rule:nonzero;stroke:none"
         transform="matrix(0.13333333,0,0,-0.13333333,0,491.56)" />
      <path
         id="path9"
         d="m 3875.21,2694.16 c -238.46,225.74 -476.93,451.48 -715.4,677.22 1.72,4.43 3.45,8.87 5.17,13.31 60.38,0 120.78,0.87 181.1,-0.92 9.27,-0.27 20.2,-11.19 26.96,-19.84 168.04,-215.07 335.64,-430.48 503.14,-645.98 3.67,-4.73 5.16,-11.16 7.67,-16.8 -2.88,-2.33 -5.75,-4.66 -8.64,-6.99"
         style="fill:#9d1738;fill-opacity:1;fill-rule:nonzero;stroke:none"
         transform="matrix(0.13333333,0,0,-0.13333333,0,491.56)" />
      <path
         id="path10"
         d="m 145.195,1637.76 c 0,-17.56 3.196,-35.11 6.387,-51.07 27.129,-97.33 108.508,-164.34 210.625,-164.34 146.797,0 234.551,119.67 234.551,296.78 0,154.78 -79.778,287.21 -229.766,287.21 -95.742,0 -185.097,-65.42 -213.816,-172.32 -3.188,-15.96 -7.981,-35.11 -7.981,-57.44 z M 0,1328.21 c 3.19531,52.65 6.38672,130.84 6.38672,199.45 v 933.43 H 145.195 v -485.06 h 3.196 c 49.461,86.16 138.816,142 263.281,142 191.473,0 327.098,-159.56 325.496,-394.11 0,-276.04 -173.914,-413.26 -346.238,-413.26 -111.7,0 -201.059,43.07 -258.496,145.19 h -4.789 L 121.27,1328.21 H 0"
         style="fill:#ec008c;fill-opacity:1;fill-rule:nonzero;stroke:none"
         transform="matrix(0.13333333,0,0,-0.13333333,0,491.56)" />
      <path
         id="path11"
         d="m 919.023,2403.65 h 138.817 v -518.58 h 4.79 c 28.72,41.49 57.44,79.79 84.57,114.89 l 328.69,403.69 h 172.32 l -389.32,-456.34 419.65,-619.1 h -164.36 l -354.22,528.14 -102.12,-118.07 V 1328.21 H 919.023 v 1075.44"
         style="fill:#231f20;fill-opacity:1;fill-rule:nonzero;stroke:none"
         transform="matrix(0.13333333,0,0,-0.13333333,0,491.56)" />
      <path
         id="path12"
         d="m 2211.42,1722.32 c -153.18,3.19 -327.1,-23.93 -327.1,-173.92 0,-90.94 60.63,-134.03 132.43,-134.03 100.53,0 164.35,63.83 186.69,129.25 4.78,14.35 7.98,30.31 7.98,44.67 z m 20.74,-394.11 -11.17,97.33 h -4.79 c -43.07,-60.63 -126.05,-114.88 -236.15,-114.88 -156.37,0 -236.14,110.1 -236.14,221.79 0,186.68 165.93,288.8 464.31,287.2 v 15.96 c 0,63.83 -17.55,178.71 -175.51,178.71 -71.8,0 -146.8,-22.34 -201.05,-57.44 l -31.91,92.55 c 63.82,41.48 156.37,68.6 253.7,68.6 236.15,0 293.59,-161.15 293.59,-315.93 v -288.81 c 0,-67.01 3.19,-132.43 12.76,-185.08 h -127.64"
         style="fill:#231f20;fill-opacity:1;fill-rule:nonzero;stroke:none"
         transform="matrix(0.13333333,0,0,-0.13333333,0,491.56)" />
      <path
         id="path13"
         d="m 2554.44,1471.81 c 41.49,-27.12 114.89,-55.85 185.09,-55.85 102.12,0 149.99,51.07 149.99,114.89 0,67.02 -39.89,103.71 -143.6,142.01 -138.82,49.46 -204.24,126.05 -204.24,218.6 0,124.45 100.52,226.57 266.46,226.57 78.19,0 146.8,-22.33 189.88,-47.86 l -35.1,-102.12 c -30.32,19.14 -86.16,44.68 -157.97,44.68 -82.97,0 -129.24,-47.87 -129.24,-105.31 0,-63.83 46.27,-92.55 146.79,-130.84 134.03,-51.07 202.65,-118.08 202.65,-232.96 0,-135.63 -105.32,-231.37 -288.81,-231.37 -84.56,0 -162.75,20.74 -217,52.66 l 35.1,106.9"
         style="fill:#231f20;fill-opacity:1;fill-rule:nonzero;stroke:none"
         transform="matrix(0.13333333,0,0,-0.13333333,0,491.56)" />
      <path
         id="path14"
         d="m 3205.44,2461.09 h 140.41 v -481.88 h 3.19 c 22.34,39.9 57.44,75 100.52,98.94 41.48,23.92 90.96,39.88 143.6,39.88 103.72,0 269.66,-63.82 269.66,-330.29 v -459.53 h -140.41 v 443.58 c 0,124.45 -46.27,229.77 -178.71,229.77 -90.95,0 -162.75,-63.83 -188.28,-140.42 -7.98,-19.14 -9.57,-39.89 -9.57,-67.01 v -465.92 h -140.41 v 1132.88"
         style="fill:#231f20;fill-opacity:1;fill-rule:nonzero;stroke:none"
         transform="matrix(0.13333333,0,0,-0.13333333,0,491.56)" />
    </g>
  </g>
</svg>
