<?xml version="1.0" encoding="UTF-8" standalone="no"?><!-- Generator: Gravit.io --><svg xmlns="http://www.w3.org/2000/svg" xmlns:xlink="http://www.w3.org/1999/xlink" style="isolation:isolate" viewBox="130 146.835 759.46 227.165" width="759.46pt" height="227.165pt"><g><path d=" M 213 181.165 L 228 181.165 L 228 211.165 L 213 211.165 L 162 211.165 C 162 211.165 162 211.165 162 211.165 C 161.47 211.165 160.96 211.385 160.58 211.755 C 160.21 212.125 160 212.635 160 213.165 C 160 213.165 160 213.165 160 213.165 L 160 215.165 C 160 218.135 160.98 221.015 162.8 223.355 C 164.62 225.695 167.16 227.365 170.03 228.105 L 197.67 235.185 L 197.82 235.225 L 197.86 235.245 C 203.59 236.765 209 239.285 213.84 242.695 C 218.59 246.005 222.8 250.015 226.34 254.585 C 229.89 259.145 232.72 264.215 234.75 269.625 C 236.85 275.205 237.95 281.105 238 287.065 C 238 287.075 238 287.085 238 287.095 L 238 287.165 L 238 291.165 C 238 291.165 238 291.165 238 291.165 C 238 299.655 234.62 307.795 228.62 313.795 C 222.62 319.795 214.48 323.165 206 323.165 C 206 323.165 206 323.165 206 323.165 L 150 323.165 L 135 323.165 L 135 293.165 L 150 293.165 L 206 293.165 C 206 293.165 206 293.165 206 293.165 C 206.53 293.165 207.04 292.955 207.41 292.585 C 207.79 292.205 208 291.695 208 291.165 C 208 291.165 208 291.165 208 291.165 L 208 287.225 C 207.98 284.825 207.53 282.445 206.68 280.195 C 205.71 277.595 204.34 275.155 202.63 272.975 C 200.94 270.775 198.92 268.845 196.64 267.265 C 194.68 265.875 192.48 264.855 190.16 264.235 L 162.59 257.165 C 153.26 254.775 144.99 249.345 139.1 241.745 C 133.2 234.145 129.99 224.795 130 215.165 L 130 213.165 C 130 213.165 130 213.165 130 213.165 C 130 204.685 133.37 196.545 139.37 190.545 C 145.37 184.545 153.51 181.175 162 181.165 C 162 181.165 162 181.165 162 181.165 L 213 181.165 Z " fill="rgb(0,0,0)"/><path d=" M 323.623 323.165 L 303.37 271.815 C 302.89 270.645 302.22 269.555 301.38 268.595 C 300.26 267.285 298.96 266.115 297.53 265.145 C 296.1 264.175 294.54 263.395 292.9 262.835 C 291.71 262.405 290.46 262.185 289.19 262.165 L 288.81 262.165 L 288.81 262.165 L 283.77 262.165 L 283.77 308.165 L 283.77 323.165 L 253.77 323.165 L 253.77 308.165 L 253.77 162.165 L 253.77 147.165 L 283.77 147.165 L 283.77 162.165 L 283.77 232.165 L 288.81 232.165 C 288.81 232.165 288.81 232.165 288.81 232.165 C 292.03 232.165 295.17 231.205 297.84 229.415 C 300.51 227.625 302.59 225.075 303.8 222.095 C 303.8 222.095 303.8 222.095 303.8 222.095 L 320.484 181.248 L 352.864 181.248 L 331.58 233.435 C 331.58 233.435 331.58 233.435 331.58 233.435 C 329.47 238.595 326.46 243.325 322.67 247.405 C 323.17 247.935 323.66 248.485 324.13 249.035 C 327.1 252.485 329.49 256.395 331.2 260.615 C 331.21 260.655 331.23 260.685 331.24 260.725 L 331.26 260.765 L 351.72 312.665 L 355.867 323.165 L 323.623 323.165 Z " fill="rgb(0,0,0)"/><path d=" M 223.11 244.855 L 223.16 244.865 L 223.18 244.875 L 222.98 244.815 L 223.01 244.825 C 223.05 244.835 223.08 244.845 223.11 244.855 Z " fill="rgb(0,0,0)"/><path d=" M 401 308.165 L 401 323.165 L 371 323.165 L 371 308.165 L 371 216.165 L 371 201.165 L 401 201.165 L 401 216.165 L 401 308.165 Z " fill="rgb(0,0,0)"/><path d=" M 835.395 181.641 L 821.11 184.455 L 799.56 188.675 C 799.55 188.675 799.55 188.675 799.55 188.675 C 787.85 190.975 777.3 197.265 769.72 206.475 C 762.14 215.675 757.99 227.245 758 239.165 L 758 308.165 L 758 323.165 L 788 323.165 L 788 308.165 L 788 239.165 C 788 239.165 788 239.165 788 239.165 C 788 234.195 789.72 229.375 792.89 225.535 C 796.04 221.695 800.44 219.075 805.32 218.115 L 826.88 213.885 L 835.395 212.22 L 835.395 181.641 Z " fill="rgb(0,0,0)"/><path d=" M 883 308.165 L 883 323.165 L 853 323.165 L 853 308.165 L 853 216.165 L 853 201.165 L 883 201.165 L 883 216.165 L 883 308.165 Z " fill="rgb(0,0,0)"/><path d=" M 814.989 355.55 L 814.989 355.55 L 814.989 355.55 Q 814.989 361.286 812.89 365.405 L 812.89 365.405 L 812.89 365.405 Q 810.792 369.523 807.146 371.735 L 807.146 371.735 L 807.146 371.735 Q 803.499 373.948 798.865 373.948 L 798.865 373.948 L 798.865 373.948 Q 794.213 373.948 790.567 371.735 L 790.567 371.735 L 790.567 371.735 Q 786.921 369.523 784.822 365.396 L 784.822 365.396 L 784.822 365.396 Q 782.724 361.269 782.724 355.55 L 782.724 355.55 L 782.724 355.55 Q 782.724 349.814 784.822 345.696 L 784.822 345.696 L 784.822 345.696 Q 786.921 341.577 790.567 339.365 L 790.567 339.365 L 790.567 339.365 Q 794.213 337.153 798.865 337.153 L 798.865 337.153 L 798.865 337.153 Q 803.499 337.153 807.146 339.365 L 807.146 339.365 L 807.146 339.365 Q 810.792 341.577 812.89 345.696 L 812.89 345.696 L 812.89 345.696 Q 814.989 349.814 814.989 355.55 Z  M 809.638 355.55 L 809.638 355.55 L 809.638 355.55 Q 809.638 351.178 808.23 348.179 L 808.23 348.179 L 808.23 348.179 Q 806.822 345.18 804.382 343.632 L 804.382 343.632 L 804.382 343.632 Q 801.943 342.084 798.865 342.084 L 798.865 342.084 L 798.865 342.084 Q 795.77 342.084 793.339 343.632 L 793.339 343.632 L 793.339 343.632 Q 790.908 345.18 789.5 348.179 L 789.5 348.179 L 789.5 348.179 Q 788.092 351.178 788.092 355.55 L 788.092 355.55 L 788.092 355.55 Q 788.092 359.922 789.5 362.921 L 789.5 362.921 L 789.5 362.921 Q 790.908 365.921 793.339 367.468 L 793.339 367.468 L 793.339 367.468 Q 795.77 369.016 798.865 369.016 L 798.865 369.016 L 798.865 369.016 Q 801.943 369.016 804.382 367.468 L 804.382 367.468 L 804.382 367.468 Q 806.822 365.921 808.23 362.921 L 808.23 362.921 L 808.23 362.921 Q 809.638 359.922 809.638 355.55 Z  M 826.514 373.458 L 821.285 373.458 L 821.285 346.596 L 826.514 346.596 L 826.514 373.458 Z  M 823.925 342.452 L 823.925 342.452 L 823.925 342.452 Q 822.561 342.452 821.591 341.533 L 821.591 341.533 L 821.591 341.533 Q 820.62 340.615 820.62 339.339 L 820.62 339.339 L 820.62 339.339 Q 820.62 338.044 821.591 337.126 L 821.591 337.126 L 821.591 337.126 Q 822.561 336.208 823.925 336.208 L 823.925 336.208 L 823.925 336.208 Q 825.289 336.208 826.26 337.126 L 826.26 337.126 L 826.26 337.126 Q 827.231 338.044 827.231 339.339 L 827.231 339.339 L 827.231 339.339 Q 827.231 340.615 826.26 341.533 L 826.26 341.533 L 826.26 341.533 Q 825.289 342.452 823.925 342.452 Z  M 838.773 373.458 L 833.544 373.458 L 833.544 346.596 L 838.563 346.596 L 838.563 350.968 L 838.895 350.968 L 838.895 350.968 Q 839.735 348.747 841.641 347.497 L 841.641 347.497 L 841.641 347.497 Q 843.547 346.246 846.205 346.246 L 846.205 346.246 L 846.205 346.246 Q 848.898 346.246 850.726 347.506 L 850.726 347.506 L 850.726 347.506 Q 852.553 348.765 853.428 350.968 L 853.428 350.968 L 853.708 350.968 L 853.708 350.968 Q 854.669 348.817 856.768 347.532 L 856.768 347.532 L 856.768 347.532 Q 858.867 346.246 861.769 346.246 L 861.769 346.246 L 861.769 346.246 Q 865.424 346.246 867.742 348.537 L 867.742 348.537 L 867.742 348.537 Q 870.059 350.828 870.059 355.445 L 870.059 355.445 L 870.059 373.458 L 864.83 373.458 L 864.83 355.935 L 864.83 355.935 Q 864.83 353.207 863.343 351.983 L 863.343 351.983 L 863.343 351.983 Q 861.857 350.758 859.793 350.758 L 859.793 350.758 L 859.793 350.758 Q 857.24 350.758 855.824 352.324 L 855.824 352.324 L 855.824 352.324 Q 854.407 353.889 854.407 356.337 L 854.407 356.337 L 854.407 373.458 L 849.196 373.458 L 849.196 355.603 L 849.196 355.603 Q 849.196 353.417 847.832 352.087 L 847.832 352.087 L 847.832 352.087 Q 846.468 350.758 844.281 350.758 L 844.281 350.758 L 844.281 350.758 Q 842.795 350.758 841.545 351.537 L 841.545 351.537 L 841.545 351.537 Q 840.294 352.315 839.533 353.696 L 839.533 353.696 L 839.533 353.696 Q 838.773 355.078 838.773 356.897 L 838.773 356.897 L 838.773 373.458 Z  M 882.283 373.458 L 877.054 373.458 L 877.054 346.596 L 882.283 346.596 L 882.283 373.458 Z  M 879.695 342.452 L 879.695 342.452 L 879.695 342.452 Q 878.331 342.452 877.36 341.533 L 877.36 341.533 L 877.36 341.533 Q 876.39 340.615 876.39 339.339 L 876.39 339.339 L 876.39 339.339 Q 876.39 338.044 877.36 337.126 L 877.36 337.126 L 877.36 337.126 Q 878.331 336.208 879.695 336.208 L 879.695 336.208 L 879.695 336.208 Q 881.059 336.208 882.029 337.126 L 882.029 337.126 L 882.029 337.126 Q 883 338.044 883 339.339 L 883 339.339 L 883 339.339 Q 883 340.615 882.029 341.533 L 882.029 341.533 L 882.029 341.533 Q 881.059 342.452 879.695 342.452 Z  M 658.733 346.596 L 673.913 346.596 L 673.913 350.793 L 658.733 350.793 L 658.733 346.596 Z  M 668.124 373.458 L 662.895 373.458 L 662.895 343.483 L 662.895 343.483 Q 662.895 340.965 663.997 339.295 L 663.997 339.295 L 663.997 339.295 Q 665.099 337.625 666.918 336.794 L 666.918 336.794 L 666.918 336.794 Q 668.736 335.963 670.87 335.963 L 670.87 335.963 L 670.87 335.963 Q 672.444 335.963 673.563 336.217 L 673.563 336.217 L 673.563 336.217 Q 674.682 336.471 675.224 336.68 L 675.224 336.68 L 674 340.913 L 674 340.913 Q 673.633 340.808 673.056 340.659 L 673.056 340.659 L 673.056 340.659 Q 672.479 340.51 671.657 340.51 L 671.657 340.51 L 671.657 340.51 Q 669.751 340.51 668.937 341.455 L 668.937 341.455 L 668.937 341.455 Q 668.124 342.399 668.124 344.183 L 668.124 344.183 L 668.124 373.458 Z  M 684.528 373.458 L 679.299 373.458 L 679.299 346.596 L 684.353 346.596 L 684.353 350.863 L 684.633 350.863 L 684.633 350.863 Q 685.367 348.695 687.23 347.444 L 687.23 347.444 L 687.23 347.444 Q 689.092 346.194 691.453 346.194 L 691.453 346.194 L 691.453 346.194 Q 691.943 346.194 692.616 346.229 L 692.616 346.229 L 692.616 346.229 Q 693.29 346.264 693.674 346.316 L 693.674 346.316 L 693.674 351.318 L 693.674 351.318 Q 693.359 351.231 692.555 351.117 L 692.555 351.117 L 692.555 351.117 Q 691.751 351.003 690.946 351.003 L 690.946 351.003 L 690.946 351.003 Q 689.092 351.003 687.65 351.781 L 687.65 351.781 L 687.65 351.781 Q 686.207 352.56 685.367 353.932 L 685.367 353.932 L 685.367 353.932 Q 684.528 355.305 684.528 357.054 L 684.528 357.054 L 684.528 373.458 Z  M 708.557 374 L 708.557 374 L 708.557 374 Q 704.779 374 701.964 372.269 L 701.964 372.269 L 701.964 372.269 Q 699.148 370.537 697.592 367.424 L 697.592 367.424 L 697.592 367.424 Q 696.035 364.312 696.035 360.149 L 696.035 360.149 L 696.035 360.149 Q 696.035 355.97 697.592 352.839 L 697.592 352.839 L 697.592 352.839 Q 699.148 349.709 701.964 347.978 L 701.964 347.978 L 701.964 347.978 Q 704.779 346.246 708.557 346.246 L 708.557 346.246 L 708.557 346.246 Q 712.334 346.246 715.15 347.978 L 715.15 347.978 L 715.15 347.978 Q 717.965 349.709 719.522 352.839 L 719.522 352.839 L 719.522 352.839 Q 721.078 355.97 721.078 360.149 L 721.078 360.149 L 721.078 360.149 Q 721.078 364.312 719.522 367.424 L 719.522 367.424 L 719.522 367.424 Q 717.965 370.537 715.15 372.269 L 715.15 372.269 L 715.15 372.269 Q 712.334 374 708.557 374 Z  M 708.574 369.611 L 708.574 369.611 L 708.574 369.611 Q 711.022 369.611 712.631 368.316 L 712.631 368.316 L 712.631 368.316 Q 714.24 367.022 715.019 364.871 L 715.019 364.871 L 715.019 364.871 Q 715.797 362.72 715.797 360.132 L 715.797 360.132 L 715.797 360.132 Q 715.797 357.561 715.019 355.401 L 715.019 355.401 L 715.019 355.401 Q 714.24 353.242 712.631 351.93 L 712.631 351.93 L 712.631 351.93 Q 711.022 350.618 708.574 350.618 L 708.574 350.618 L 708.574 350.618 Q 706.108 350.618 704.491 351.93 L 704.491 351.93 L 704.491 351.93 Q 702.873 353.242 702.095 355.401 L 702.095 355.401 L 702.095 355.401 Q 701.317 357.561 701.317 360.132 L 701.317 360.132 L 701.317 360.132 Q 701.317 362.72 702.095 364.871 L 702.095 364.871 L 702.095 364.871 Q 702.873 367.022 704.491 368.316 L 704.491 368.316 L 704.491 368.316 Q 706.108 369.611 708.574 369.611 Z  M 732.131 373.458 L 726.902 373.458 L 726.902 346.596 L 731.921 346.596 L 731.921 350.968 L 732.253 350.968 L 732.253 350.968 Q 733.092 348.747 734.999 347.497 L 734.999 347.497 L 734.999 347.497 Q 736.905 346.246 739.563 346.246 L 739.563 346.246 L 739.563 346.246 Q 742.256 346.246 744.084 347.506 L 744.084 347.506 L 744.084 347.506 Q 745.911 348.765 746.786 350.968 L 746.786 350.968 L 747.065 350.968 L 747.065 350.968 Q 748.027 348.817 750.126 347.532 L 750.126 347.532 L 750.126 347.532 Q 752.224 346.246 755.127 346.246 L 755.127 346.246 L 755.127 346.246 Q 758.782 346.246 761.099 348.537 L 761.099 348.537 L 761.099 348.537 Q 763.417 350.828 763.417 355.445 L 763.417 355.445 L 763.417 373.458 L 758.188 373.458 L 758.188 355.935 L 758.188 355.935 Q 758.188 353.207 756.701 351.983 L 756.701 351.983 L 756.701 351.983 Q 755.215 350.758 753.151 350.758 L 753.151 350.758 L 753.151 350.758 Q 750.598 350.758 749.181 352.324 L 749.181 352.324 L 749.181 352.324 Q 747.765 353.889 747.765 356.337 L 747.765 356.337 L 747.765 373.458 L 742.553 373.458 L 742.553 355.603 L 742.553 355.603 Q 742.553 353.417 741.189 352.087 L 741.189 352.087 L 741.189 352.087 Q 739.825 350.758 737.639 350.758 L 737.639 350.758 L 737.639 350.758 Q 736.153 350.758 734.902 351.537 L 734.902 351.537 L 734.902 351.537 Q 733.652 352.315 732.891 353.696 L 732.891 353.696 L 732.891 353.696 Q 732.131 355.078 732.131 356.897 L 732.131 356.897 L 732.131 373.458 Z " fill="rgb(116,116,116)"/><path d=" M 455 308.165 L 455 323.165 L 425 323.165 L 425 308.165 L 425 162.165 L 425 147.165 L 455 147.165 L 455 162.165 L 455 308.165 Z " fill="rgb(0,0,0)"/><path d=" M 508 308.165 L 508 323.165 L 478 323.165 L 478 308.165 L 478 162.165 L 478 147.165 L 508 147.165 L 508 162.165 L 508 308.165 Z " fill="rgb(0,0,0)"/><path d=" M 529 186.165 L 529 162.165 L 529 147.165 L 559 147.165 L 559 162.165 L 559 181.165 L 588 181.165 L 603 181.165 L 603 211.165 L 588 211.165 L 559 211.165 L 559 276.165 C 559 280.675 560.79 285.005 563.97 288.195 C 567.16 291.375 571.49 293.165 576 293.165 L 588 293.165 L 603 293.165 L 603 323.165 L 588 323.165 L 576 323.165 C 576 323.165 576 323.165 576 323.165 C 563.54 323.165 551.57 318.215 542.76 309.405 C 533.95 300.595 529 288.635 529 276.175 C 529 276.175 529 276.165 529 276.165 L 529 206.165 L 529 186.165 Z " fill="rgb(0,0,0)"/><path d=" M 614.247 225.578 C 610.371 234.222 608.215 243.801 608.215 253.88 C 608.215 281.473 624.38 305.32 647.748 316.46 Q 662.827 292.312 657.013 282.189 C 649.615 269.309 619.772 244.205 614.247 225.578 Z  M 624.614 209.149 C 637.322 194.131 656.306 184.594 677.5 184.594 C 715.74 184.594 746.786 204.188 746.786 242.428 C 746.786 280.667 715.74 323.165 677.5 323.165 C 672.919 323.165 668.441 322.72 664.108 321.87 Q 705.081 290.302 720.815 249.226 C 730.967 222.723 653.585 203.392 624.614 209.149 Z " fill-rule="evenodd" fill="rgb(119,0,255)"/><path d=" M 364.53 168.295 C 364.53 162.605 366.79 157.145 370.82 153.115 C 374.84 149.095 380.31 146.835 386 146.835 C 391.69 146.835 397.15 149.095 401.18 153.115 C 405.2 157.145 407.46 162.605 407.46 168.295 C 407.46 173.985 405.2 179.455 401.18 183.475 C 397.15 187.495 391.69 189.765 386 189.765 C 380.31 189.765 374.84 187.495 370.82 183.475 C 366.79 179.455 364.53 173.985 364.53 168.295 Z " fill="rgb(0,0,0)"/><path d=" M 846.53 168.295 C 846.53 162.605 848.79 157.145 852.82 153.115 C 856.84 149.095 862.31 146.835 868 146.835 C 873.69 146.835 879.15 149.095 883.18 153.115 C 887.2 157.145 889.46 162.605 889.46 168.295 C 889.46 173.985 887.2 179.455 883.18 183.475 C 879.15 187.495 873.69 189.765 868 189.765 C 862.31 189.765 856.84 187.495 852.82 183.475 C 848.79 179.455 846.53 173.985 846.53 168.295 Z " fill="rgb(0,0,0)"/></g></svg>