<svg width="158" height="29" viewBox="0 0 158 29" fill="none" xmlns="http://www.w3.org/2000/svg">
<g clip-path="url(#clip0_206_27)">
<path d="M55.1332 6.56833V22.23H51.3497V6.56833H45.9252V3.06702H60.5579V6.56833H55.1332ZM66.4839 22.5138C65.177 22.5138 64.0222 22.2102 63.0195 21.603C62.0166 20.9958 61.2302 20.1362 60.6604 19.0242C60.0906 17.9123 59.8057 16.5993 59.8057 15.0853C59.8057 13.587 60.083 12.2897 60.6376 11.1935C61.1922 10.0974 61.9633 9.24959 62.951 8.65019C63.9387 8.05092 65.0707 7.75128 66.347 7.75128C67.5475 7.75128 68.6225 8.02732 69.5723 8.57938C70.5219 9.1313 71.274 9.93167 71.8286 10.9805C72.3832 12.0294 72.6605 13.3109 72.6605 14.8249V16.1499H63.4297C63.5512 17.1908 63.8855 17.9911 64.4326 18.551C64.9795 19.111 65.6557 19.391 66.4611 19.391C67.0992 19.391 67.6234 19.2372 68.0336 18.9296C68.444 18.622 68.7251 18.2001 68.877 17.6638H72.6605C72.4782 18.6733 72.0983 19.5408 71.5208 20.2663C70.9435 20.9918 70.2218 21.5478 69.3557 21.9342C68.4895 22.3206 67.5322 22.5138 66.4839 22.5138ZM63.498 13.5475H69.0593C68.9378 12.6643 68.6339 11.994 68.1476 11.5365C67.6614 11.0791 67.0688 10.8504 66.3698 10.8504C65.6557 10.8504 65.0441 11.0791 64.5351 11.5365C64.0261 11.994 63.6804 12.6643 63.498 13.5475ZM80.7746 22.5138C79.0119 22.5138 77.5836 22.0643 76.4896 21.1654C75.3956 20.2664 74.8106 19.0519 74.7346 17.522H78.2902C78.3967 18.1686 78.6778 18.6655 79.1336 19.0125C79.5895 19.3594 80.1896 19.5329 80.9341 19.5329C81.5267 19.5329 81.9864 19.4146 82.3131 19.178C82.6398 18.9414 82.8031 18.5866 82.8031 18.1134C82.8031 17.451 82.3701 17.0173 81.504 16.8123L78.9056 16.2444C76.368 15.6609 75.0993 14.3439 75.0993 12.2935C75.0993 10.9214 75.5969 9.82133 76.5921 8.99331C77.5875 8.16529 78.8905 7.75128 80.5011 7.75128C82.127 7.75128 83.4527 8.18108 84.4784 9.04066C85.504 9.90024 86.0548 11.0555 86.1307 12.5066H82.5752C82.4688 11.8914 82.2181 11.4221 81.8231 11.0988C81.428 10.7755 80.919 10.6139 80.2959 10.6139C79.7642 10.6139 79.3387 10.7243 79.0196 10.9451C78.7005 11.1659 78.5409 11.4892 78.5409 11.915C78.5409 12.2305 78.6435 12.4828 78.8487 12.6721C79.0537 12.8613 79.3462 13.0033 79.7262 13.0979L82.4156 13.713C83.692 13.9969 84.6531 14.4661 85.2988 15.1207C85.9446 15.7753 86.2675 16.6703 86.2675 17.8059C86.2675 19.2569 85.7737 20.4043 84.786 21.2481C83.7984 22.0919 82.4613 22.5138 80.7746 22.5138ZM96.3873 22.23H92.6722C91.7149 22.23 90.9742 21.9736 90.45 21.461C89.9257 20.9484 89.6635 20.1638 89.6635 19.107V11.1108H87.5438V8.03514H89.7091V3.77676H93.3104V8.03514H96.1138V11.1108H93.356V19.1543H96.3873V22.23Z" fill="#076945"/>
<path fill-rule="evenodd" clip-rule="evenodd" d="M19.7224 0.000979854C19.9819 -0.00528018 20.2885 0.0193664 20.4005 0.0622085C20.5124 0.0987906 20.6598 0.14789 20.7248 0.172344C20.7897 0.196797 21.0196 0.306941 21.2437 0.411014C21.4618 0.515087 21.68 0.600765 21.7271 0.600765C21.7742 0.600765 21.8155 0.625221 21.8155 0.661803C21.8155 0.698581 21.8687 0.723032 21.9335 0.723032C21.9983 0.723032 22.0515 0.747483 22.0515 0.78426C22.0515 0.821038 22.1044 0.845501 22.1693 0.845501C22.2341 0.845501 22.2872 0.869952 22.2872 0.90673C22.2872 0.943507 22.3404 0.967958 22.4052 0.967958C22.4701 0.967958 22.6233 1.02919 22.7471 1.10255C22.8651 1.17591 22.977 1.24321 22.9948 1.25553C23.0125 1.26786 23.0125 1.28605 22.9948 1.30444C22.977 1.32283 22.8886 1.30443 22.8003 1.26159C22.7117 1.21875 22.641 1.16984 22.641 1.15145C22.641 1.13306 22.5879 1.11468 22.523 1.10861C22.4523 1.09648 22.3934 1.13306 22.3815 1.20036C22.3698 1.25553 22.3227 1.48207 22.2872 1.70234C22.2283 2.01437 22.2283 2.13077 22.2872 2.25303C22.3285 2.33872 22.4052 2.4551 22.4582 2.51633C22.5407 2.60808 22.6587 2.62647 23.4369 2.62021C23.9205 2.62021 24.292 2.59576 24.2507 2.57131C24.2153 2.54685 24.8284 2.53453 25.6067 2.54079C26.3909 2.54685 27.2694 2.58363 27.5641 2.62021C27.8591 2.65699 28.2541 2.71823 28.4486 2.74875C28.6431 2.78553 28.8555 2.83443 28.9204 2.86514C28.9852 2.88959 29.1561 2.95082 29.3035 2.99366C29.4509 3.0365 29.5808 3.09147 29.5983 3.10986C29.616 3.12825 29.7575 3.20788 29.911 3.29356C30.0642 3.37925 30.188 3.46493 30.188 3.49544C30.188 3.5199 30.2293 3.53828 30.2764 3.53828C30.3235 3.53828 30.4828 3.59346 30.6301 3.66075C30.7775 3.72805 30.8955 3.82586 30.8955 3.87496C30.8955 3.92387 30.8897 3.96671 30.8778 3.96671C30.872 3.96671 30.4415 4.07685 29.9226 4.21144C29.4038 4.34623 28.8908 4.48688 28.7847 4.5176C28.6844 4.55418 28.6019 4.61541 28.6137 4.65825C28.6256 4.69503 28.7376 4.78071 28.8672 4.848C28.991 4.90923 29.4686 5.09899 29.9226 5.2641C30.3766 5.43547 31.0252 5.66807 31.3672 5.77821C31.7091 5.8946 32.2398 6.05971 32.5465 6.13933C32.8529 6.21895 33.4662 6.35355 33.9025 6.43923C34.3388 6.51885 35.0286 6.61666 35.4355 6.6595C35.8424 6.69628 36.3317 6.75751 36.5264 6.79409C36.7208 6.8248 36.9154 6.88604 36.9566 6.92263C36.9979 6.96547 37.0333 7.05115 37.0333 7.11844C37.0333 7.18593 36.9685 7.30214 36.8976 7.3755C36.8211 7.44906 36.5852 7.57757 36.3613 7.66326C36.143 7.755 35.6948 7.8896 35.3588 7.97529C35.0286 8.0549 34.5333 8.16504 34.2563 8.21394C33.9792 8.26305 33.2892 8.37925 32.7233 8.46494C32.1573 8.55062 31.6384 8.64237 31.5736 8.67309C31.5088 8.69754 31.2847 8.69754 31.0725 8.67309C30.8601 8.64237 30.583 8.59953 30.4534 8.56275C30.3235 8.53223 29.9522 8.45261 29.6279 8.38532C29.3035 8.31196 27.9769 8.02419 26.6799 7.73662C25.3826 7.45511 24.0266 7.16128 23.6729 7.09399C23.3191 7.02063 22.8297 6.92263 22.1693 6.78197V6.4942C22.1634 6.23715 22.134 6.16985 21.9452 5.98029C21.8274 5.85783 21.5797 5.70485 21.4028 5.63129C21.226 5.564 20.8014 5.47225 20.4595 5.42941C19.97 5.36818 19.7165 5.36212 19.2508 5.42335C18.9265 5.45993 18.5019 5.55187 18.3074 5.61916C18.1129 5.68646 17.9005 5.79054 17.8356 5.85177C17.7708 5.90674 17.6705 6.02313 17.6117 6.10862C17.5409 6.21896 17.5115 6.38406 17.5115 6.67789C17.5115 6.90423 17.535 7.15522 17.5705 7.2409C17.6057 7.32658 17.7295 7.46118 17.8475 7.54686C17.9713 7.63255 18.2425 7.76108 18.4548 7.82837C18.7614 7.92638 19.009 7.95083 19.693 7.9569C20.1647 7.9569 20.7071 7.92638 20.9016 7.8896C21.0963 7.84676 21.9064 7.61886 22.0515 7.25323C22.1989 7.19807 22.6352 7.33265 23.4369 7.51635C23.9735 7.63881 25.142 7.89488 25.9201 8.06625C26.6985 8.23761 26.7977 8.2879 26.8862 8.30022C26.9982 8.32468 26.6976 8.83213 26.6799 8.89336C26.6563 8.97298 26.7034 8.97904 26.9865 8.94226C27.2458 8.91175 27.1633 9.03401 27.0159 9.00956C26.8704 8.981 26.8173 8.98713 26.8566 9.02795C26.8862 9.06472 27.1397 9.18093 27.4168 9.285C27.694 9.38908 28.089 9.5176 28.3013 9.5665C28.5193 9.61541 28.9675 9.65825 29.3331 9.65825C29.6869 9.65825 30.07 9.68291 30.1703 9.71949C30.306 9.76233 30.3589 9.81123 30.3473 9.89085C30.3412 9.95815 30.2234 10.0317 30.0229 10.1051C29.8578 10.1602 29.4451 10.2215 29.109 10.2397C28.7788 10.258 28.3896 10.2888 27.9769 10.3437L28.148 10.4723C28.2423 10.5458 28.3544 10.6804 28.3955 10.7782C28.4722 10.9251 28.4663 10.9619 28.3425 11.1149C28.2658 11.2066 28.0594 11.3475 27.8827 11.4271C27.6231 11.5494 27.4403 11.5801 26.8862 11.6045C26.5089 11.6167 26.0136 11.5985 25.766 11.5556C25.5242 11.5189 25.0172 11.4087 24.6457 11.3107C24.2743 11.2129 23.7377 11.0476 23.4488 10.9496C23.1657 10.8457 22.9241 10.76 22.9064 10.76C22.8886 10.76 23.0241 10.9864 23.2011 11.2679C23.3839 11.5433 23.5726 11.9105 23.6256 12.0758C23.6906 12.2838 23.7081 12.5164 23.6906 12.8102C23.6729 13.0978 23.6139 13.3487 23.5078 13.5751C23.4252 13.7588 23.2956 13.979 23.2188 14.0647C23.1421 14.1504 23.0006 14.2789 22.9064 14.3523C22.8119 14.4198 22.5172 14.5912 22.2578 14.7258C21.9983 14.8543 21.621 15.0256 21.4146 15.099C21.2141 15.1663 20.8487 15.2827 20.6069 15.35C20.3534 15.4173 19.9819 15.4722 19.7343 15.4722C19.5043 15.4722 19.1506 15.4294 18.9559 15.3744C18.7614 15.3193 18.4193 15.1786 18.1954 15.0562C17.9713 14.9276 17.5999 14.6645 17.3699 14.4564C17.14 14.2545 16.8392 13.9485 16.7037 13.7832C16.568 13.6179 16.4561 13.4528 16.45 13.4221C16.45 13.3916 16.5916 13.2323 16.7744 13.0733C16.9866 12.8835 17.0987 12.7306 17.0987 12.6449C17.1046 12.5471 17.0514 12.4796 16.9395 12.4307C16.8511 12.3939 16.3264 12.345 15.7721 12.3266C15.2178 12.3082 14.4101 12.2348 13.9737 12.1736C13.5374 12.1063 12.7945 11.9962 12.3228 11.9228C11.8512 11.8553 11.4089 11.7515 11.3324 11.7024C11.2615 11.6534 11.2025 11.5738 11.2025 11.5249C11.2025 11.4576 11.3147 11.4148 11.5977 11.3719C11.8216 11.3352 12.1695 11.2618 12.3818 11.2066C12.5942 11.1577 12.8535 11.0781 12.9538 11.0292C13.0893 10.968 13.1483 10.9007 13.1483 10.8089C13.1543 10.7293 13.107 10.6192 13.048 10.564C12.9892 10.509 12.8593 10.4294 12.7651 10.3926C12.6707 10.35 12.2167 10.1968 11.7626 10.0438C11.3088 9.89692 10.6307 9.70736 10.2592 9.62168C9.87589 9.54206 9.16254 9.4503 8.60826 9.41353C8.07188 9.37675 7.39377 9.32178 7.10485 9.29107C6.81593 9.26055 6.42674 9.187 6.24996 9.12596C6.07299 9.0708 5.47743 8.78322 4.92334 8.49545C4.3749 8.20788 3.76181 7.86514 3.56713 7.73662C3.2194 7.50402 3.21337 7.49796 3.36075 7.43066C3.46686 7.38782 3.83833 7.39389 4.66966 7.45512C5.3065 7.50402 5.84306 7.53473 5.86077 7.51635C5.87849 7.49796 5.63669 7.38176 5.31837 7.25323C5.00589 7.13077 4.38677 6.92888 3.95047 6.81854C3.51417 6.70234 2.87733 6.56169 2.53545 6.50046C2.0166 6.40852 1.9399 6.38406 2.06372 6.33515C2.14627 6.30463 2.31721 6.24947 2.44687 6.21895C2.57673 6.18824 2.77707 6.1454 2.89505 6.12701C3.01303 6.10862 3.14269 6.06578 3.18981 6.03526C3.23693 6.00475 3.59069 5.98029 3.97987 5.98636C4.36906 5.98636 4.69925 6.01081 4.71696 6.04133C4.73468 6.07204 5.06488 6.11488 5.45387 6.13327C5.84306 6.15146 6.66855 6.18824 7.28163 6.20663C8.00686 6.23108 8.65556 6.21895 9.10958 6.16985C9.49858 6.12701 10.0293 6.05365 10.2886 6.01081C10.5482 5.9619 10.7958 5.88834 10.8371 5.8455C10.9019 5.78427 10.89 5.75376 10.7781 5.67414C10.7014 5.61916 10.2711 5.43547 9.81709 5.25804C9.36307 5.0806 8.77939 4.82355 8.51987 4.68896C8.26054 4.55417 8.00686 4.40119 7.95974 4.34622C7.91263 4.29712 7.8182 4.2177 7.75337 4.17486C7.64142 4.1013 7.64142 4.08918 7.73566 4.00349C7.7888 3.94833 7.86551 3.90548 7.90678 3.90548C7.94203 3.90548 8.05416 3.8198 8.15424 3.72198C8.24866 3.62397 8.34893 3.53828 8.37249 3.53828C8.3902 3.53828 8.49047 3.46493 8.59073 3.37299C8.68497 3.27517 8.90321 3.12825 9.07415 3.0365C9.23925 2.93849 9.4869 2.8223 9.6224 2.77339C9.79353 2.71216 10.1177 2.68144 10.6249 2.68144C11.3028 2.68144 11.462 2.7059 12.1873 2.90191C12.6354 3.02418 13.2544 3.18949 13.561 3.26911C13.8676 3.34853 14.186 3.43421 14.2685 3.4526C14.3511 3.47099 14.7225 3.5383 15.094 3.60559C15.4655 3.67289 15.9018 3.72198 16.0669 3.70966C16.3322 3.69127 16.3616 3.67914 16.3735 3.53828C16.3852 3.4526 16.3439 3.33015 16.2851 3.26285C16.232 3.19556 16.0137 2.98741 15.8015 2.80391C15.5893 2.62022 15.3062 2.34497 15.1707 2.19199C15.035 2.03882 14.9231 1.87978 14.9172 1.843C14.9172 1.80016 15.0056 1.74519 15.1059 1.7268C15.212 1.70841 15.3829 1.66556 15.4773 1.63504C15.5716 1.60432 15.7838 1.53703 15.9489 1.48206C16.1081 1.43296 16.3264 1.35354 16.4206 1.30444C16.515 1.2616 16.7214 1.16984 16.8746 1.09648C17.0339 1.02919 17.1752 0.967958 17.199 0.967958C17.2284 0.967958 17.5705 0.802651 17.9655 0.600765C18.3664 0.398684 18.732 0.233572 18.7791 0.233572C18.8262 0.233572 18.8675 0.215185 18.8675 0.190731C18.8675 0.160018 18.95 0.111117 19.0562 0.0743396C19.1623 0.0375619 19.4631 0.000979854 19.7224 0.000979854Z" fill="#37B574"/>
<path fill-rule="evenodd" clip-rule="evenodd" d="M27.688 9.07685C27.8472 9.08917 28.1007 9.1197 28.2481 9.15041C28.3955 9.18093 28.4841 9.2177 28.4545 9.24216C28.4251 9.26055 28.1716 9.22983 27.8943 9.1688C27.5053 9.07685 27.458 9.05865 27.688 9.07685Z" fill="#37B574"/>
<path fill-rule="evenodd" clip-rule="evenodd" d="M10.6011 14.9276C10.7722 14.9216 10.9786 14.9521 11.0612 14.9828C11.1437 15.0133 11.4385 15.2582 11.7214 15.5214C12.0044 15.7784 12.4526 16.1272 12.712 16.2862C13.1305 16.5433 13.1895 16.5678 13.2191 16.4699C13.2427 16.3903 13.2721 16.4455 13.3194 16.6351C13.3546 16.7882 13.4195 17.1186 13.4726 17.3696C13.5197 17.6204 13.6377 18.3119 13.7438 18.8996C13.8441 19.4871 13.9383 20.0317 13.956 20.1113C13.9679 20.197 14.0092 20.2338 14.0682 20.2154C14.1153 20.197 14.1566 20.1174 14.1566 20.0317C14.1566 19.946 14.1978 19.8359 14.245 19.787C14.2921 19.7381 14.3158 19.6768 14.2862 19.6584C14.2627 19.6401 14.2745 19.634 14.3158 19.6461C14.3511 19.6524 14.4868 19.4994 14.6106 19.2973C14.7403 19.0954 14.9347 18.8261 15.0469 18.6915C15.1588 18.5629 15.3535 18.4039 15.4832 18.3366C15.6541 18.2447 15.7721 18.2263 15.9253 18.257C16.0375 18.2814 16.45 18.4773 16.8392 18.6915C17.2284 18.9057 17.8356 19.1933 18.1954 19.3341C18.5492 19.4687 18.9619 19.6461 19.1093 19.7257C19.2567 19.8054 19.4747 19.9705 19.5986 20.1053C19.7755 20.2888 19.8168 20.3744 19.8049 20.5153C19.7872 20.6743 19.6871 20.7661 19.0739 21.1884C18.6847 21.4639 18.1129 21.8555 17.8062 22.0637C17.4996 22.2716 17.1046 22.5103 16.9278 22.596C16.7214 22.694 16.4442 22.7673 16.1613 22.7918C15.8075 22.8225 15.6306 22.8041 15.2591 22.7C15.0115 22.6327 14.6106 22.4737 14.3746 22.3512C14.1447 22.2288 13.7792 21.9964 13.5668 21.8371C13.3546 21.6718 13.0244 21.3659 12.8241 21.1517C12.6294 20.9437 12.3405 20.5887 12.1814 20.3684C12.028 20.1481 11.7687 19.6952 11.6153 19.3586C11.4562 19.0219 11.2734 18.5017 11.0729 17.6449L11.2615 17.0024C11.4149 16.4699 11.4385 16.3291 11.3853 16.164C11.3324 15.9803 11.3088 15.9619 11.0847 15.9619C10.8606 15.9619 10.8075 15.9926 10.554 16.2862C10.3949 16.4576 10.159 16.7698 10.0235 16.9717C9.89361 17.1736 9.68724 17.4674 9.56945 17.6327C9.45147 17.7918 9.31577 17.9203 9.27449 17.9203C9.23925 17.9203 9.16254 17.8286 9.10959 17.7245C9.04456 17.5899 9.01516 17.3817 9.02101 17.1126C9.02101 16.8739 9.07999 16.5312 9.15086 16.317C9.21569 16.1028 9.35704 15.7968 9.45731 15.6315C9.56342 15.4662 9.72267 15.2643 9.82294 15.1907C9.91717 15.1174 10.0647 15.0256 10.1473 14.9889C10.2298 14.9583 10.4362 14.9276 10.6011 14.9276Z" fill="#37B574"/>
<path d="M22.3815 1.15144C22.364 1.21267 22.3227 1.48206 22.2873 1.70233C22.2283 2.01436 22.2283 2.13076 22.2873 2.25302C22.3285 2.33871 22.4052 2.45509 22.4582 2.51632C22.5407 2.60807 22.6587 2.62646 23.4369 2.6202C23.997 2.6202 24.286 2.59575 24.233 2.56523C24.1621 2.51632 23.1305 2.30212 23.0832 2.28373C23.036 2.26534 22.9948 2.21644 22.9948 2.17966C22.9948 2.13076 23.1009 2.09397 23.2718 2.08165C23.4311 2.06952 23.9264 1.90422 23.9735 1.85531C24.0208 1.8064 24.0502 1.75123 24.0383 1.73891C24.0325 1.72678 23.9676 1.69 23.8909 1.64716C23.8203 1.61058 22.4748 0.793838 22.3815 1.15144Z" fill="#076945"/>
<path d="M14.7521 1.81248C14.5993 1.77453 13.6797 2.04391 13.6848 2.10631C13.6023 2.13076 13.5433 2.1736 13.5493 2.21644C13.561 2.25303 15.5245 3.48939 15.6247 3.50778C15.7602 3.53223 15.7898 3.56274 15.7544 3.6363C15.719 3.72198 15.7544 3.72805 16.0375 3.70966C16.3322 3.69127 16.3616 3.67913 16.3735 3.53828C16.3852 3.4526 16.3439 3.33014 16.2851 3.26285C16.232 3.19555 15.9962 2.97528 15.7721 2.77946C15.5422 2.57737 15.2649 2.30819 15.153 2.1736C15.041 2.03882 14.9347 1.89816 14.9172 1.86138C14.8995 1.82461 14.8286 1.80015 14.7521 1.81248Z" fill="#076945"/>
<path d="M30.8955 3.8331C30.8897 3.84542 30.4415 4.07079 29.9226 4.21144C29.4038 4.34623 28.8908 4.48689 28.7847 4.5176C28.6844 4.55418 28.6019 4.61541 28.6137 4.65825C28.6256 4.69503 28.7376 4.78071 28.8672 4.84801C28.991 4.90924 29.4686 5.099 29.9226 5.2641C30.3767 5.43547 31.0252 5.66807 31.3672 5.77821C31.7091 5.89461 32.2398 6.05972 32.5465 6.13934C32.8529 6.21896 33.4662 6.35355 33.9025 6.43923C34.3388 6.51885 35.0286 6.61666 35.4355 6.6595C35.8424 6.69628 36.3317 6.75751 36.5264 6.79409C36.7209 6.82481 36.9154 6.88605 36.9566 6.92263C36.9979 6.96547 37.0333 7.05115 37.0333 7.11844C37.0333 7.18594 36.9685 7.30214 36.8976 7.3755C36.8211 7.44906 36.5852 7.57757 36.3613 7.66326C36.143 7.75501 35.6948 7.8896 35.3588 7.97529C35.0286 8.05491 34.5333 8.16504 34.2563 8.21395C33.9792 8.26305 33.2892 8.37925 32.7233 8.46494C32.1573 8.55062 31.6443 8.63631 31.5853 8.6547C31.5323 8.66683 31.485 8.69754 31.485 8.72806C31.485 8.75251 31.603 8.80768 31.7504 8.85052C31.8978 8.8873 33.8435 9.30946 34.0205 9.3523C34.1973 9.38908 34.4626 9.45031 34.61 9.48689C34.8105 9.54206 34.8812 9.54206 34.8873 9.48689C34.8989 9.44405 38.9968 7.657 39.0616 7.60203C39.1265 7.55312 39.2797 7.48564 39.3977 7.45512C39.5805 7.40621 39.6217 7.36943 39.6217 7.2409C39.6217 7.13892 39.5628 7.04711 39.4448 6.96547C39.3445 6.89817 39.2384 6.8432 39.209 6.8432C39.1736 6.8432 39.15 6.81856 39.15 6.78197C39.15 6.7452 39.0969 6.72073 39.032 6.72073C38.9672 6.72073 38.9082 6.69628 38.8965 6.66557C38.8907 6.64112 38.6843 6.50653 38.4425 6.37801C38.2007 6.24948 37.8824 6.12701 37.735 6.10256C37.5876 6.07811 37.0569 5.99849 36.5558 5.92513C36.0546 5.84551 31.5795 5.0499 31.3672 5.01332C31.155 4.9826 30.9309 4.93369 30.8661 4.90923L30.7481 4.86014C30.9309 4.79284 31.7272 4.70716 32.0751 4.70716C32.4585 4.7011 32.4223 4.48161 32.3814 4.45637C32.2031 4.34617 31.7078 4.13841 30.8955 3.8331Z" fill="#076945"/>
<path d="M34.5557 9.46988C34.7482 9.66942 34.2744 9.85135 33.9215 9.82083C33.8629 9.85154 33.7821 9.89223 33.8088 9.93781C34.3123 10.7957 34.649 13.8605 34.819 19.1322L35.3594 18.8206C35.2762 13.2197 35.1039 10.1085 34.8426 9.48689C34.8043 9.39593 34.7849 9.40376 34.5557 9.46988Z" fill="#076945"/>
<path d="M6.01399 5.27035C6.01399 5.34371 6.0613 5.37423 6.19096 5.37423C6.2852 5.37423 8.61692 6.22306 9.40433 6.13933C9.59883 6.12094 9.98218 6.05971 10.2592 6.0108C10.5363 5.9619 10.7958 5.88834 10.8371 5.84549C10.9019 5.78426 10.89 5.75375 10.7781 5.67413C10.7014 5.61916 10.2711 5.43546 9.81708 5.25803C9.36306 5.0806 8.79106 4.83568 8.54945 4.70715C8.30764 4.58489 8.02457 4.40725 7.93033 4.31551C7.83007 4.22376 7.72396 4.1504 7.68853 4.1504C7.6531 4.1504 6.00815 5.20286 6.01399 5.27035Z" fill="#076945"/>
<path d="M1.87507 6.42691C1.54864 6.46995 0.283079 6.91049 0.182814 6.99618C0.0825491 7.08186 0 7.1736 0 7.21038C0 7.24696 0.0412747 7.31427 0.08858 7.36337C0.135697 7.41228 5.07656 9.64613 5.33608 9.77465C5.80763 10.0073 5.81366 10.0073 6.89848 10.0806C7.49988 10.1174 8.31934 10.1479 8.72624 10.1479C9.13314 10.1479 9.80522 10.1786 10.2298 10.2152C10.6484 10.2459 11.1377 10.2888 11.3028 10.3071C11.4739 10.3193 11.6153 10.35 11.6153 10.3805C11.6153 10.405 11.4502 10.4601 11.2498 10.509C11.0435 10.5519 10.7191 10.6131 10.5246 10.6376C10.3299 10.662 9.82293 10.7293 9.40435 10.7905C8.97973 10.8457 8.57886 10.8946 8.50215 10.9007C8.43148 10.9067 8.36665 10.9375 8.36665 10.9742C8.36062 11.0108 8.73811 11.2066 9.20382 11.4208C9.66971 11.6351 10.2886 11.9044 10.5836 12.0206C10.8725 12.1431 11.2202 12.2837 11.3501 12.3329C11.4975 12.3939 11.9102 12.4551 12.4408 12.4858C12.9125 12.5163 13.9973 12.5653 14.8582 12.5836C16.2438 12.6204 16.4029 12.6388 16.2438 12.7122C16.1436 12.755 15.9666 12.8163 15.8428 12.8468C15.725 12.8775 15.5126 12.9325 15.3711 12.9692C15.2355 13.006 14.8051 13.0733 14.4159 13.1222C14.0269 13.1713 13.5964 13.2263 13.4549 13.2447C13.3075 13.257 13.2072 13.2998 13.2072 13.3487C13.2072 13.3855 13.3723 13.5017 13.5787 13.5995C13.7793 13.6915 14.0917 13.8261 14.2685 13.8934C14.4455 13.9607 14.6871 14.0587 14.7992 14.1136C14.9112 14.1688 15.1353 14.3157 15.3004 14.4443C15.4596 14.5728 15.6483 14.7195 15.7131 14.7686C15.7779 14.8236 16.0314 14.946 16.2732 15.0501C16.515 15.1542 16.8215 15.2888 16.9513 15.35C17.081 15.4112 17.3522 15.5335 17.5528 15.6192C17.7591 15.7049 18.1306 15.8396 18.378 15.913C18.7614 16.0231 18.9913 16.0476 19.7814 16.0415C20.5833 16.0415 20.7955 16.0231 21.226 15.9007C21.503 15.8213 21.8332 15.7111 21.9629 15.656C22.0927 15.5947 22.3285 15.4846 22.4936 15.4112C22.6529 15.3316 22.9358 15.2031 23.1127 15.1174C23.2895 15.0378 23.5668 14.9032 23.7319 14.8236C23.8909 14.7379 24.056 14.6769 24.0856 14.6769C24.115 14.6769 24.2388 14.5972 24.3508 14.4992C24.4629 14.4014 24.7164 14.2422 24.9109 14.132C25.1056 14.028 25.3001 13.9423 25.3355 13.9423C25.3768 13.9423 25.4122 13.9241 25.4122 13.8994C25.4181 13.8689 25.2824 13.6731 25.1173 13.4528C24.9522 13.2323 24.056 11.9778 24.0383 11.941C24.0031 11.88 24.0325 11.88 24.1563 11.941C24.2507 11.9839 24.3981 12.0635 24.4983 12.1186C24.5926 12.1736 26.2494 12.7673 26.5148 12.8346C26.786 12.908 27.069 12.9632 27.1514 12.9632C27.234 12.9632 27.5466 12.8407 27.8414 12.6938C28.142 12.5471 32.3931 10.5824 32.5288 10.5151C32.6703 10.4478 34.0687 10.1282 33.9215 9.82083C33.7742 9.78425 32.6505 9.55438 32.3439 9.48689C32.0373 9.42585 26.9156 8.30629 26.8862 8.30022C26.8566 8.30022 26.5138 8.96065 26.5964 9.00349C26.6789 9.0524 27.1397 9.17487 27.4168 9.27894C27.694 9.38908 28.089 9.5176 28.3013 9.5665C28.5193 9.61541 28.9675 9.65825 29.3331 9.65825C29.6869 9.65825 30.07 9.68291 30.1703 9.71949C30.306 9.76233 30.3589 9.81124 30.3473 9.89086C30.3412 9.95815 30.2234 10.0317 30.0229 10.1051C29.8578 10.1602 29.4451 10.2215 29.109 10.2397C28.7788 10.258 28.3896 10.2888 28.2423 10.3071L27.9769 10.3437C28.2423 10.5458 28.3544 10.6804 28.3955 10.7782C28.4722 10.9251 28.4664 10.9619 28.3425 11.1149C28.2658 11.2066 28.0594 11.3475 27.8827 11.4271C27.6231 11.5494 27.4403 11.5801 26.8862 11.6045C26.5089 11.6167 26.0136 11.5985 25.766 11.5556C25.5242 11.5189 25.0172 11.4087 24.6457 11.3107C24.2743 11.2129 23.7377 11.0476 23.4488 10.9496C23.1657 10.8457 22.9241 10.76 22.9064 10.76C22.8886 10.76 23.0242 10.9864 23.2011 11.2679C23.3839 11.5433 23.5726 11.9105 23.6256 12.0758C23.6906 12.2838 23.7081 12.5164 23.6906 12.8102C23.6729 13.0978 23.6139 13.3487 23.5078 13.5751C23.4252 13.7588 23.2956 13.979 23.2188 14.0647C23.1421 14.1504 23.0006 14.2789 22.9064 14.3523C22.8061 14.4198 22.5172 14.5912 22.2578 14.7258C21.9983 14.8543 21.621 15.0256 21.4146 15.099C21.2141 15.1663 20.8487 15.2827 20.6069 15.35C20.3534 15.4173 19.9819 15.4723 19.7343 15.4723C19.5043 15.4723 19.1506 15.4294 18.9559 15.3744C18.7614 15.3193 18.4193 15.1786 18.1954 15.0562C17.9713 14.9276 17.5999 14.6645 17.3699 14.4564C17.14 14.2545 16.8392 13.9485 16.7037 13.7832C16.568 13.6179 16.4561 13.4528 16.45 13.4221C16.45 13.3916 16.5916 13.2323 16.7744 13.0733C16.9866 12.8835 17.0987 12.7306 17.0987 12.6449C17.1046 12.5471 17.0514 12.4796 16.9395 12.4307C16.8511 12.3939 16.3204 12.345 15.7721 12.3266C15.2178 12.3082 14.4101 12.2348 13.9738 12.1736C13.5374 12.1063 12.7945 11.9962 12.3228 11.9228C11.8512 11.8553 11.4089 11.7515 11.3324 11.7024C11.2615 11.6534 11.2025 11.5738 11.2025 11.5249C11.2025 11.4576 11.3147 11.4148 11.5977 11.3719C11.8216 11.3352 12.1695 11.2618 12.3818 11.2066C12.5942 11.1577 12.8535 11.0781 12.9538 11.0292C13.0893 10.968 13.1483 10.9007 13.1483 10.8089C13.1543 10.7293 13.107 10.6192 13.048 10.564C12.9892 10.509 12.8593 10.4294 12.7651 10.3926C12.6648 10.35 12.2167 10.1968 11.7626 10.0438C11.3088 9.89692 10.6307 9.70736 10.2592 9.62168C9.8759 9.54206 9.16254 9.45031 8.60826 9.41353C8.07188 9.37675 7.39378 9.32178 7.10486 9.29107C6.81009 9.26055 6.42675 9.187 6.24996 9.12596C6.07299 9.0708 5.47159 8.78322 4.92334 8.49546C4.36906 8.20789 3.76182 7.86514 3.56713 7.73662C3.21941 7.50402 3.21337 7.49796 3.36076 7.43066C3.46686 7.38782 3.83833 7.39389 4.66967 7.45512C5.3065 7.50402 5.84306 7.53473 5.86078 7.51635C5.87849 7.49796 5.63669 7.38176 5.31837 7.25323C5.00589 7.13077 4.43973 6.94708 4.06826 6.8432C3.69698 6.74519 3.04828 6.59827 2.62385 6.51885C2.20526 6.43923 1.86904 6.39639 1.87507 6.42691Z" fill="#076945"/>
<path d="M9.33348 13.1895C9.27449 13.2814 9.16838 13.5385 9.0977 13.7588C9.02703 13.979 8.96201 14.2177 8.96201 14.2973C8.96201 14.3707 8.9326 14.4871 8.9032 14.5544C8.86777 14.6217 8.81463 14.7318 8.78523 14.7991C8.74979 14.8664 8.72623 15.0072 8.72623 15.1051C8.72623 15.2031 8.70267 15.2948 8.67327 15.3071C8.63784 15.3132 8.60825 15.3928 8.59657 15.4846C8.5847 15.5703 8.5553 15.6683 8.53174 15.6988C8.50818 15.7232 8.49046 15.8641 8.49046 16.0108C8.49046 16.1517 8.46087 16.2679 8.43147 16.2679C8.39604 16.2679 8.37248 16.3536 8.37248 16.4516C8.37248 16.5494 8.34308 16.6351 8.31349 16.6351C8.27806 16.6351 8.23678 16.7391 8.21925 16.8677C8.20154 16.9901 8.17195 17.4246 8.15423 17.8286C8.14255 18.2386 8.15424 18.6547 8.18967 18.7772C8.21926 18.8934 8.28409 19.1199 8.32536 19.2852C8.36664 19.4443 8.4196 19.5728 8.44316 19.5728C8.47275 19.5728 8.49046 19.6217 8.49046 19.6829C8.49046 19.7381 8.59073 19.94 8.71436 20.1237C8.83818 20.3072 9.05643 20.5337 9.20381 20.6254C9.34535 20.7172 9.53401 20.8029 9.6224 20.8213L9.7875 20.858C9.7875 20.2154 9.82877 19.7991 9.87004 19.5115C9.91716 19.224 9.98218 18.8689 10.0235 18.7159C10.0647 18.563 10.159 18.2325 10.2415 17.9815C10.3241 17.7306 10.4185 17.4919 10.442 17.4614C10.4714 17.4307 10.495 17.3573 10.495 17.3084C10.495 17.2593 10.5304 17.131 10.5776 17.033L10.6661 16.8493C10.7249 17.0881 10.7132 17.2164 10.6778 17.2961C10.6424 17.3696 10.613 17.6449 10.613 17.9082C10.613 18.1652 10.6484 18.6426 10.6955 18.9608C10.7487 19.2789 10.8075 19.6279 10.8429 19.7257C10.8725 19.8238 10.9667 20.099 11.0493 20.3377C11.1318 20.5765 11.2321 20.7723 11.2615 20.7845C11.2969 20.7907 11.3205 20.8518 11.3205 20.9191C11.3205 20.9866 11.3736 21.0783 11.4385 21.1212C11.5033 21.1579 11.5565 21.2374 11.5565 21.2865C11.5623 21.3354 11.6094 21.421 11.6626 21.47C11.7214 21.5189 11.8099 21.6353 11.8689 21.7331C11.9219 21.825 12.0044 21.8984 12.0399 21.8984C12.0811 21.8984 12.1695 21.9841 12.2344 22.0821C12.2992 22.1799 12.3701 22.2656 12.3936 22.2656C12.423 22.2656 12.5175 22.3512 12.6177 22.4493C12.7119 22.5471 12.8358 22.6328 12.8829 22.6328C12.9302 22.6328 12.9715 22.6756 12.9715 22.7245C12.9715 22.7736 12.9892 22.8165 13.0127 22.8165C13.0421 22.8165 13.1247 22.8714 13.2072 22.9387C13.2898 23.0123 13.4195 23.0856 13.502 23.104C13.5846 23.1224 13.6907 23.1897 13.738 23.2509C13.7851 23.3122 13.897 23.3611 13.9856 23.3671C14.0917 23.3671 14.1507 23.3978 14.1507 23.4589C14.1507 23.5141 14.2921 23.6181 14.4867 23.7038C14.6754 23.7895 14.8876 23.8568 14.9585 23.8568C15.035 23.8568 15.0998 23.8873 15.1059 23.9241C15.1176 23.9669 15.3062 23.9975 15.6247 23.9975C16.0079 24.0037 16.2142 23.973 16.509 23.8629C16.7214 23.7834 17.0633 23.6365 17.2755 23.5324C17.4879 23.4344 17.6647 23.3243 17.6705 23.2938C17.6824 23.2693 17.7118 23.2449 17.7472 23.2449C17.7766 23.2449 18.0126 23.098 18.2661 22.9266C18.5196 22.7492 19.0207 22.3573 19.3863 22.0514C19.752 21.7454 20.0526 21.4823 20.0467 21.4578C20.0467 21.4271 20.0822 21.4087 20.1174 21.4087C20.1587 21.415 20.2473 21.3538 20.3121 21.2865C20.3769 21.219 20.4476 21.1579 20.4712 21.164C20.5008 21.164 20.4712 21.2802 20.4063 21.4271C20.3473 21.568 20.1883 21.8679 20.0526 22.1003C19.9229 22.3268 19.811 22.5226 19.811 22.541C19.811 22.5594 19.7637 22.6327 19.6988 22.7124C19.6398 22.7857 19.4218 23.0551 19.2154 23.3059C19.009 23.5569 18.6317 23.9425 18.3841 24.1628C18.1364 24.383 17.9359 24.5667 17.9417 24.5728C17.9478 24.5728 18.3251 24.6156 18.7791 24.6524C19.4099 24.7136 19.8049 24.7136 20.4595 24.6585C20.9312 24.6217 21.5149 24.5606 21.7565 24.5239C21.9983 24.4871 22.464 24.4077 22.7884 24.3402C23.1127 24.2729 23.4546 24.1935 23.5549 24.1628C23.6493 24.1322 23.9322 24.0466 24.174 23.973C24.4158 23.8996 24.7635 23.7711 24.9405 23.6915C25.1173 23.6058 25.4122 23.4407 25.589 23.3243C25.766 23.202 26.0253 22.9632 26.1668 22.7918C26.3084 22.6206 26.5089 22.29 26.615 22.0514C26.727 21.8127 26.845 21.4883 26.8862 21.317C26.9275 21.1517 26.9805 20.4601 26.9982 19.787L27.0336 18.563C27.2752 19.3218 27.4051 19.8175 27.4699 20.1542C27.5347 20.4909 27.6054 20.9742 27.6231 21.2252C27.6409 21.476 27.635 21.9044 27.5996 22.1738C27.5702 22.443 27.517 22.7673 27.4816 22.8959C27.4464 23.0183 27.4345 23.1224 27.458 23.1224C27.4876 23.1224 27.6821 23.0306 27.9062 22.9203C28.1243 22.8102 28.3012 22.7063 28.3012 22.6817C28.3012 22.6511 28.3425 22.6328 28.3896 22.6328C28.4368 22.6328 28.6492 22.4614 28.8614 22.2532C29.0736 22.0392 29.2445 21.8495 29.2445 21.825C29.2445 21.7943 29.2918 21.7025 29.3508 21.6108C29.4096 21.5128 29.5099 21.317 29.5689 21.164C29.622 21.011 29.7046 20.7356 29.7517 20.5519C29.793 20.3684 29.8284 19.9094 29.8284 19.5423C29.8342 19.1749 29.793 18.5935 29.7458 18.257C29.7046 17.9203 29.6102 17.3818 29.5453 17.0635C29.4805 16.7454 29.4096 16.4271 29.3802 16.3598C29.3508 16.2679 29.3567 16.2497 29.4096 16.2862C29.4451 16.3107 29.5808 16.4883 29.6985 16.6842C29.8224 16.8739 29.9522 17.0881 29.9816 17.1554C30.0171 17.2227 30.1409 17.4553 30.2587 17.6756C30.3708 17.8959 30.5359 18.2631 30.6243 18.5017C30.7068 18.7404 30.8307 19.1504 30.8955 19.4198C30.9603 19.689 31.0193 19.9155 31.0312 19.9276C31.037 19.9339 31.1137 19.8298 31.2021 19.6952C31.2964 19.5604 31.4202 19.279 31.4911 19.071C31.5913 18.7588 31.6088 18.5813 31.5913 18.1345C31.5676 17.7613 31.5146 17.4369 31.4085 17.1247C31.326 16.8739 31.1726 16.5005 31.0664 16.2986C30.9603 16.0965 30.8248 15.8457 30.754 15.7477C30.6891 15.6499 30.6185 15.5519 30.6007 15.5335C30.583 15.5151 30.4828 15.3684 30.3766 15.197C30.2764 15.0317 30.1703 14.8603 30.1467 14.8298C30.1171 14.7991 29.9816 14.5604 29.8342 14.3094C29.6869 14.0587 29.5395 13.7527 29.4982 13.6363C29.4628 13.5201 29.4096 13.4283 29.3802 13.4344C29.3567 13.4344 28.9616 13.6119 28.5076 13.82C28.0536 14.028 27.4051 14.3341 27.063 14.5055C26.7211 14.6706 26.1787 14.9276 25.8544 15.0745C25.53 15.2215 24.9699 15.4785 24.6161 15.656C24.2624 15.8273 23.8615 16.0231 23.7318 16.0844C23.602 16.1456 23.2305 16.323 22.9064 16.47C22.582 16.6229 22.1457 16.8004 21.9335 16.8739C21.7213 16.9473 21.2554 17.0513 20.9016 17.1002C20.4182 17.1736 20.0526 17.192 19.457 17.1615C19.0207 17.1431 18.4902 17.0819 18.278 17.039C18.0656 16.9901 17.8121 16.9228 17.7178 16.8921C17.6176 16.8616 17.4583 16.8004 17.3641 16.7515C17.2638 16.7086 16.9926 16.5862 16.7567 16.47C16.5267 16.3598 16.3204 16.2679 16.3026 16.2679C16.2851 16.2679 16.1023 16.1822 15.8899 16.0844C15.6777 15.9864 15.4713 15.9007 15.43 15.9007C15.3888 15.9007 15.2532 16.2557 15.0998 16.7454C14.9585 17.2043 14.8228 17.6388 14.7992 17.7061C14.7757 17.7734 14.7284 17.9264 14.6931 18.0428C14.6518 18.159 14.6223 18.3304 14.6223 18.4284C14.6223 18.5201 14.5929 18.5935 14.5635 18.5935C14.528 18.5935 14.5045 18.667 14.5045 18.7648C14.5045 18.8568 14.4867 18.9546 14.4632 18.979C14.4336 19.0098 14.41 19.1504 14.3984 19.2852C14.3865 19.4259 14.3571 19.5544 14.3394 19.5728C14.3158 19.5912 14.2921 19.6401 14.2804 19.6829C14.2745 19.7197 14.2804 19.7563 14.2981 19.7563C14.3158 19.7563 14.4396 19.5728 14.581 19.3462C14.7225 19.1138 14.9289 18.8261 15.041 18.6915C15.153 18.563 15.3475 18.4039 15.4773 18.3366C15.6483 18.2447 15.7663 18.2263 15.9195 18.257C16.0314 18.2815 16.4442 18.4773 16.8334 18.6915C17.2225 18.9057 17.8298 19.1933 18.1894 19.3341C18.5431 19.4687 18.9559 19.6461 19.1033 19.7257C19.2508 19.8054 19.4689 19.9705 19.5927 20.1053C19.7697 20.2888 19.811 20.3744 19.7991 20.5153C19.7814 20.6743 19.6811 20.7661 19.068 21.1885C18.6788 21.4639 18.1068 21.8555 17.8004 22.0637C17.4938 22.2716 17.0987 22.5103 16.9218 22.596C16.7154 22.694 16.4383 22.7673 16.1553 22.7918C15.8015 22.8225 15.6247 22.8041 15.2532 22.7C15.0056 22.6327 14.6047 22.4737 14.3688 22.3513C14.1388 22.2288 13.7732 21.9964 13.561 21.8371C13.3488 21.6718 13.0186 21.3659 12.8181 21.1517C12.6236 20.9437 12.3346 20.5887 12.1754 20.3684C12.0222 20.1481 11.7626 19.6952 11.6094 19.3586C11.4502 19.0219 11.2675 18.5017 11.1967 18.1957L11.067 17.6449C11.4089 16.47 11.4326 16.3291 11.3795 16.164C11.3263 15.9864 11.2969 15.9619 11.0964 15.9619C10.9077 15.9558 10.8371 16.0047 10.5659 16.2802C10.4008 16.4576 10.1531 16.7698 10.0174 16.9717C9.88776 17.1736 9.68139 17.4674 9.56341 17.6328C9.44562 17.7918 9.30991 17.9203 9.26864 17.9203C9.2334 17.9203 9.1567 17.8286 9.10355 17.7245C9.03871 17.5899 9.00931 17.3818 9.01515 17.1126C9.01515 16.8739 9.07415 16.5312 9.14482 16.317C9.20965 16.1028 9.35704 15.7845 9.46917 15.6131C9.58112 15.4357 9.78165 15.2154 9.91716 15.1235C10.0647 15.0256 10.2828 14.946 10.4362 14.9276C10.5836 14.9155 10.8016 14.9216 10.9196 14.946C11.0906 14.9705 11.2792 15.1051 11.6861 15.4846C11.9867 15.7661 12.4466 16.1272 12.7061 16.2862C13.1247 16.5433 13.1837 16.5678 13.2131 16.47C13.2368 16.4087 13.2368 16.2618 13.225 16.1456C13.2072 16.0292 13.1543 15.7232 13.107 15.4722C13.054 15.2215 13.0009 14.9337 12.9773 14.8359C12.9596 14.7441 12.9125 14.6461 12.8829 14.6217C12.8476 14.5972 12.4113 14.3891 11.9102 14.1565C11.4089 13.9301 10.8606 13.6731 10.7014 13.5935C10.5363 13.5139 10.2886 13.3976 10.1412 13.3364C9.99387 13.2752 9.77581 13.1774 9.65783 13.1222C9.43958 13.0244 9.43374 13.0244 9.33348 13.1895Z" fill="#076945"/>
<path d="M34.4922 17.9432C34.2932 18.1727 34.2565 18.2644 34.2565 18.5935C34.2565 18.8077 34.2932 19.0524 34.3302 19.1518C34.3743 19.2436 34.5143 19.366 34.647 19.4272C34.7796 19.4883 34.986 19.5342 35.1038 19.5342C35.2218 19.5342 35.4059 19.4883 35.5092 19.4349C35.6123 19.3813 35.767 19.2436 35.8554 19.1365C35.9807 18.9912 36.025 18.8382 36.025 18.5935C36.025 18.3488 35.9734 18.1879 35.8554 18.0428C35.767 17.928 35.6344 17.8362 35.5607 17.8286C35.4945 17.8286 35.4355 17.7902 35.4355 17.7521C35.4355 17.7138 35.2808 17.6756 35.0818 17.6756C34.7796 17.6832 34.706 17.7214 34.4922 17.9432Z" fill="#076945"/>
<path d="M34.238 20.9678L33.9202 21.6591C33.9611 26.2765 33.9817 27.6169 33.992 27.6169C34.0124 27.6169 34.156 27.3403 34.32 27.0105C34.4738 26.6701 34.7197 26.0636 34.8426 25.6487C34.9758 25.2338 35.1091 24.8721 35.1398 24.8294C35.1707 24.787 35.2834 25.4785 35.3859 26.3721C35.4883 27.2658 35.5908 28.2126 35.6114 28.5C35.6421 28.7764 35.7139 29 35.7651 29C35.8164 29 35.9291 28.7445 36.0111 28.4468C36.0931 28.1383 36.2161 27.5529 36.2776 27.1382C36.3494 26.6912 36.3801 25.7233 36.3494 24.6913C36.3289 23.7551 36.257 22.7018 36.1956 22.3507C36.1443 21.9997 35.9905 21.3933 35.8778 20.9997L35.6626 20.2762H34.5557L34.238 20.9678Z" fill="#076945"/>
<path d="M106.809 22.23H103.071L98.3754 3.06703H102.319L105.054 15.795H105.145L108.404 3.06703H111.914L115.31 15.795H115.401L118.136 3.06703H122.079L117.384 22.23H113.646L110.205 9.05241H110.114L106.809 22.23ZM128.302 22.23H124.609V2.3573H128.302V9.97518H128.393C128.803 9.26545 129.343 8.72128 130.011 8.34268C130.68 7.9642 131.462 7.77497 132.359 7.77497C133.346 7.77497 134.216 8.02733 134.968 8.53205C135.721 9.03676 136.309 9.73462 136.735 10.6256C137.16 11.5168 137.373 12.5459 137.373 13.713V22.23H133.681V14.4464C133.681 13.4528 133.441 12.6721 132.963 12.1044C132.484 11.5365 131.827 11.2526 130.991 11.2526C130.171 11.2526 129.517 11.5365 129.031 12.1044C128.545 12.6721 128.302 13.4528 128.302 14.4464V22.23ZM144.416 22.23H140.724V8.03515H144.416V22.23ZM142.57 6.63937C141.992 6.63937 141.502 6.43037 141.1 6.01238C140.697 5.59439 140.496 5.08577 140.496 4.4865C140.496 3.8871 140.697 3.37846 141.1 2.96061C141.502 2.54262 141.992 2.33363 142.57 2.33363C143.147 2.33363 143.637 2.54262 144.04 2.96061C144.443 3.37846 144.644 3.8871 144.644 4.4865C144.644 5.08577 144.443 5.59439 144.04 6.01238C143.637 6.43037 143.147 6.63937 142.57 6.63937ZM158 22.23H147.06V19.8641L153.328 11.1579H147.47V8.03515H157.863V10.4011L151.595 19.107H158V22.23Z" fill="#37B574"/>
</g>
<defs>
<clipPath id="clip0_206_27">
<rect width="158" height="29" fill="white"/>
</clipPath>
</defs>
</svg>
